<?xml version="1.0" standalone="no"?>
<!DOCTYPE svg PUBLIC "-//W3C//DTD SVG 20010904//EN"
 "http://www.w3.org/TR/2001/REC-SVG-20010904/DTD/svg10.dtd">
<svg version="1.0" xmlns="http://www.w3.org/2000/svg"
 width="1400.000000pt" height="1400.000000pt" viewBox="0 0 1400.000000 1400.000000"
 preserveAspectRatio="xMidYMid meet">

<g transform="translate(0.000000,1400.000000) scale(0.100000,-0.100000)"
fill="#000000" stroke="none">
<path d="M6060 8740 l0 -49 68 -3 67 -3 3 -437 2 -438 40 0 40 0 0 -1740 0
-1740 -40 0 -40 0 0 -148 c0 -82 -3 -224 -7 -315 l-6 -167 -684 0 -683 0 0
250 0 250 -269 0 c-149 0 -272 -3 -274 -7 -2 -5 -7 -19 -10 -33 l-6 -25 204
-39 205 -40 0 -178 0 -178 -540 0 -540 0 0 180 0 180 -240 0 c-199 0 -240 -2
-240 -14 0 -15 21 -21 233 -62 l137 -27 0 -128 0 -129 -919 -2 -919 -3 117
-175 c406 -610 905 -1141 1477 -1571 1379 -1037 3117 -1463 4811 -1179 1658
278 3126 1200 4105 2578 100 139 228 335 228 347 0 3 -94 5 -210 5 l-210 0 0
515 0 515 -335 0 -335 0 0 -22 c0 -22 12 -25 258 -73 l257 -50 3 -443 2 -442
-800 0 -800 0 0 260 0 260 416 0 416 0 29 29 c25 26 29 37 29 86 0 49 -4 60
-29 86 l-29 29 -416 0 -416 0 0 95 0 95 195 0 c259 0 245 -12 245 205 0 217
14 205 -245 205 l-195 0 0 95 0 95 199 0 200 0 20 26 c19 24 21 40 21 179 0
207 16 195 -243 195 l-197 0 0 93 c0 59 -4 97 -12 105 -13 13 -185 17 -205 4
-8 -5 -13 -42 -15 -100 l-3 -93 -860 0 c-473 0 -940 1 -1037 1 l-177 0 -3 98
-3 97 -105 3 c-129 3 -130 2 -130 -115 l0 -83 -189 0 c-186 0 -190 0 -218 -24
-28 -24 -28 -25 -31 -164 -6 -233 2 -239 281 -228 l167 6 0 -95 0 -95 -65 0
-65 0 0 86 0 87 -32 -7 c-82 -16 -241 -28 -323 -24 l-90 5 159 -31 159 -31 1
-43 1 -42 -67 0 c-56 0 -71 -4 -95 -24 -28 -24 -28 -25 -31 -161 -4 -152 -1
-176 28 -205 16 -16 34 -20 90 -20 l70 0 0 -95 0 -95 -290 0 -291 0 -24 -25
c-22 -21 -25 -33 -25 -90 0 -57 3 -69 25 -90 l24 -25 280 0 c154 0 285 -2 293
-5 10 -4 12 -56 10 -266 l-3 -261 -442 7 c-243 4 -443 8 -444 9 -2 1 -6 142
-9 314 l-7 311 -36 3 -36 3 0 1737 0 1738 37 0 38 0 2 438 3 437 68 3 67 3 0
49 0 50 -295 0 -295 0 0 -50z m3920 -3595 l0 -95 -1040 0 -1040 0 0 95 0 95
1040 0 1040 0 0 -95z m-2310 -600 l0 -95 -65 0 -65 0 0 95 0 95 65 0 65 0 0
-95z m2310 0 l0 -95 -1040 0 -1040 0 0 95 0 95 1040 0 1040 0 0 -95z m-2310
-418 c0 -52 -3 -169 -7 -260 l-6 -167 -59 0 -58 0 0 260 0 260 65 0 65 0 0
-93z m1194 45 c109 -23 207 -42 217 -42 18 0 19 -11 20 -197 0 -109 2 -206 4
-215 3 -17 -31 -18 -601 -18 l-604 0 0 261 0 260 383 -4 382 -4 199 -41z
m1116 -45 c0 -52 -3 -169 -7 -260 l-6 -167 -354 0 -353 0 0 260 0 260 360 0
360 0 0 -93z"/>
</g>
</svg>
