<?xml version="1.0" encoding="UTF-8"?>
<svg id="_Слой_2222" data-name="Слой 222" xmlns="http://www.w3.org/2000/svg" viewBox="0 0 82.1 13.18">
 <defs>
  <style>
   
    .fil1 {fill:#F36F21}
    .fil0 {fill:#0060AA;fill-rule:nonzero}
    .fil2 {fill:#F36F21;fill-rule:nonzero}
   
  </style>
 </defs>
 <g id="Слой_x0020_1">
  <g id="_3135929014016">
   <path class="fil0" d="M81.1 5.65c0,0.52 -0.04,0.96 -0.11,1.31 -0.07,0.35 -0.18,0.62 -0.32,0.82 -0.14,0.2 -0.32,0.34 -0.53,0.43 -0.21,0.08 -0.45,0.13 -0.73,0.12 -0.27,0 -0.51,-0.04 -0.72,-0.14 -0.21,-0.09 -0.38,-0.25 -0.53,-0.46 -0.14,-0.21 -0.25,-0.49 -0.32,-0.84 -0.07,-0.35 -0.11,-0.77 -0.11,-1.28l0 -0.17c0,-0.49 0.03,-0.9 0.1,-1.24 0.06,-0.34 0.16,-0.62 0.3,-0.83 0.13,-0.21 0.31,-0.37 0.52,-0.46 0.21,-0.1 0.47,-0.15 0.76,-0.14 0.41,0 0.74,0.1 0.99,0.3 0.25,0.2 0.42,0.5 0.53,0.89 0.11,0.4 0.16,0.89 0.16,1.49l0 0.18zm1 0.09l0 -0.37c0,-0.72 -0.1,-1.32 -0.29,-1.82 -0.19,-0.5 -0.49,-0.87 -0.89,-1.13 -0.4,-0.26 -0.9,-0.39 -1.51,-0.39 -0.45,0 -0.85,0.08 -1.18,0.23 -0.34,0.15 -0.62,0.38 -0.84,0.67 -0.22,0.29 -0.39,0.64 -0.5,1.05 -0.11,0.41 -0.17,0.88 -0.17,1.39l0 0.39c0,0.57 0.07,1.06 0.19,1.47 0.13,0.41 0.31,0.75 0.55,1.02 0.24,0.27 0.52,0.47 0.85,0.6 0.33,0.13 0.7,0.19 1.1,0.19 0.41,0 0.78,-0.06 1.11,-0.18 0.33,-0.12 0.61,-0.32 0.85,-0.58 0.24,-0.26 0.42,-0.6 0.54,-1.02 0.13,-0.42 0.19,-0.92 0.19,-1.51zm-6.94 -3.62l-3.88 0 0 6.8 0.97 0 0 -6.01 2.9 0 0 -0.79zm-6.79 2.31c0,0.18 -0.03,0.34 -0.09,0.48 -0.06,0.14 -0.15,0.25 -0.28,0.34 -0.12,0.08 -0.28,0.13 -0.48,0.13l-1.49 0 0 -2.45 1.41 0c0.19,0 0.35,0.04 0.48,0.13 0.14,0.09 0.24,0.21 0.32,0.36 0.08,0.16 0.12,0.34 0.12,0.54l0 0.47zm1 -0.03l0 -0.42c0,-0.27 -0.04,-0.52 -0.13,-0.75 -0.09,-0.22 -0.21,-0.42 -0.38,-0.59 -0.17,-0.17 -0.37,-0.29 -0.61,-0.38 -0.24,-0.09 -0.52,-0.14 -0.83,-0.14l-2.35 0 0 6.8 0.97 0 0 -2.76 1.51 0c0.29,-0 0.55,-0.05 0.77,-0.14 0.23,-0.09 0.42,-0.22 0.57,-0.38 0.16,-0.16 0.28,-0.35 0.36,-0.56 0.08,-0.21 0.12,-0.44 0.12,-0.68zm-6.16 4.52l0 -0.75 -3.17 0 0 -2.33 2.43 0 0 -0.75 -2.43 0 0 -2.22 3.03 0 0 -0.76 -3.98 0 0 6.8 4.12 0zm-6.5 0l0 -6.8 -0.97 0 0 2.97 -2.74 0 0 -2.97 -0.97 0 0 6.8 0.97 0 0 -3.07 2.74 0 0 3.07 0.97 0zm-11.19 -0.19l0 -0.76c0.09,0.04 0.2,0.09 0.33,0.14 0.13,0.05 0.28,0.08 0.45,0.12 0.17,0.03 0.36,0.05 0.56,0.05 0.36,0 0.68,-0.04 0.94,-0.12 0.26,-0.08 0.48,-0.21 0.66,-0.4 0.17,-0.19 0.31,-0.44 0.4,-0.75 0.09,-0.31 0.15,-0.71 0.16,-1.17l-2.76 0 0 -0.75 2.75 0c-0.03,-0.53 -0.11,-0.96 -0.26,-1.29 -0.14,-0.33 -0.35,-0.57 -0.63,-0.73 -0.28,-0.16 -0.63,-0.23 -1.05,-0.23 -0.23,0 -0.43,0.01 -0.59,0.03 -0.16,0.02 -0.3,0.04 -0.41,0.06 -0.11,0.03 -0.21,0.05 -0.3,0.08 -0.09,0.03 -0.17,0.06 -0.26,0.09l0 -0.86c0.09,-0.04 0.21,-0.07 0.34,-0.11 0.13,-0.03 0.29,-0.06 0.47,-0.08 0.18,-0.02 0.4,-0.03 0.64,-0.03 0.68,0 1.24,0.13 1.69,0.39 0.45,0.26 0.78,0.64 1.01,1.14 0.22,0.5 0.34,1.12 0.34,1.86l0 0.28c-0,0.62 -0.08,1.14 -0.22,1.57 -0.15,0.43 -0.35,0.77 -0.62,1.03 -0.26,0.26 -0.57,0.45 -0.92,0.57 -0.35,0.12 -0.73,0.18 -1.14,0.17 -0.29,-0 -0.54,-0.02 -0.75,-0.05 -0.21,-0.03 -0.39,-0.07 -0.52,-0.11 -0.14,-0.04 -0.24,-0.09 -0.31,-0.13zm-7.06 -0.74c-0.12,0 -0.24,-0.02 -0.36,-0.05 -0.12,-0.03 -0.25,-0.08 -0.4,-0.15l0 0.91c0.14,0.08 0.29,0.14 0.46,0.18 0.17,0.04 0.35,0.05 0.53,0.05 0.22,0 0.42,-0.03 0.6,-0.1 0.17,-0.07 0.33,-0.18 0.46,-0.34 0.13,-0.16 0.25,-0.39 0.34,-0.67 0.1,-0.29 0.18,-0.65 0.25,-1.09 0.07,-0.44 0.12,-0.97 0.17,-1.59 0.02,-0.32 0.05,-0.68 0.07,-1.06 0.03,-0.38 0.05,-0.78 0.07,-1.2l1.8 0 0 6.04 0.97 0 0 -6.8 -3.63 0c-0.03,0.59 -0.06,1.13 -0.1,1.61 -0.03,0.49 -0.06,0.92 -0.1,1.3 -0.04,0.5 -0.09,0.93 -0.14,1.28 -0.05,0.35 -0.11,0.63 -0.18,0.86 -0.07,0.22 -0.14,0.39 -0.22,0.51 -0.08,0.12 -0.17,0.2 -0.27,0.25 -0.1,0.04 -0.21,0.07 -0.33,0.06zm-3.43 -1.16c0,0.27 -0.04,0.51 -0.12,0.71 -0.08,0.2 -0.21,0.35 -0.38,0.46 -0.18,0.11 -0.41,0.16 -0.69,0.16l-1.45 0 0 -2.57 1.37 0c0.3,0 0.55,0.06 0.74,0.16 0.19,0.1 0.33,0.25 0.41,0.43 0.09,0.19 0.13,0.4 0.13,0.64zm-2.65 -1.98l0 -1.98 3.23 0 0 -0.76 -4.19 0 0 6.8 2.27 0c0.5,0 0.93,-0.08 1.27,-0.23 0.34,-0.15 0.61,-0.38 0.78,-0.68 0.18,-0.3 0.27,-0.67 0.27,-1.12 -0,-0.44 -0.09,-0.8 -0.26,-1.11 -0.18,-0.3 -0.43,-0.54 -0.77,-0.7 -0.33,-0.16 -0.74,-0.24 -1.22,-0.24l-1.39 0zm-3.95 0.79c0,0.52 -0.04,0.96 -0.11,1.31 -0.07,0.35 -0.18,0.62 -0.32,0.82 -0.14,0.2 -0.32,0.34 -0.53,0.43 -0.21,0.08 -0.45,0.13 -0.73,0.12 -0.27,0 -0.51,-0.04 -0.72,-0.14 -0.21,-0.09 -0.38,-0.25 -0.53,-0.46 -0.14,-0.21 -0.25,-0.49 -0.32,-0.84 -0.07,-0.35 -0.11,-0.77 -0.11,-1.28l0 -0.17c0,-0.49 0.03,-0.9 0.1,-1.24 0.06,-0.34 0.16,-0.62 0.3,-0.83 0.13,-0.21 0.31,-0.37 0.52,-0.46 0.21,-0.1 0.47,-0.15 0.76,-0.14 0.41,0 0.74,0.1 0.99,0.3 0.25,0.2 0.42,0.5 0.53,0.89 0.11,0.4 0.16,0.89 0.16,1.49l0 0.18zm1 0.09l0 -0.37c0,-0.72 -0.1,-1.32 -0.29,-1.82 -0.19,-0.5 -0.49,-0.87 -0.89,-1.13 -0.4,-0.26 -0.9,-0.39 -1.51,-0.39 -0.45,0 -0.85,0.08 -1.18,0.23 -0.34,0.15 -0.62,0.38 -0.84,0.67 -0.22,0.29 -0.39,0.64 -0.5,1.05 -0.11,0.41 -0.17,0.88 -0.17,1.39l0 0.39c0,0.57 0.07,1.06 0.19,1.47 0.13,0.41 0.31,0.75 0.54,1.02 0.24,0.27 0.52,0.47 0.85,0.6 0.33,0.13 0.7,0.19 1.1,0.19 0.41,0 0.78,-0.06 1.11,-0.18 0.33,-0.12 0.61,-0.32 0.85,-0.58 0.24,-0.26 0.42,-0.6 0.54,-1.02 0.13,-0.42 0.19,-0.92 0.19,-1.51zm-7.01 3l0 -0.77c-0.09,0.04 -0.2,0.09 -0.33,0.13 -0.13,0.04 -0.28,0.08 -0.45,0.11 -0.17,0.03 -0.36,0.05 -0.56,0.05 -0.35,0 -0.66,-0.05 -0.93,-0.14 -0.27,-0.1 -0.49,-0.25 -0.67,-0.46 -0.18,-0.21 -0.31,-0.49 -0.4,-0.83 -0.09,-0.34 -0.13,-0.75 -0.13,-1.24l0 -0.09c0,-0.88 0.16,-1.54 0.48,-1.98 0.32,-0.44 0.8,-0.66 1.44,-0.66 0.23,0 0.43,0.01 0.59,0.02 0.16,0.02 0.3,0.04 0.41,0.06 0.11,0.02 0.21,0.05 0.3,0.08 0.09,0.03 0.17,0.06 0.26,0.09l0 -0.87c-0.09,-0.04 -0.21,-0.07 -0.34,-0.11 -0.13,-0.03 -0.29,-0.06 -0.47,-0.08 -0.18,-0.02 -0.4,-0.03 -0.64,-0.03 -0.49,0 -0.92,0.08 -1.29,0.23 -0.38,0.15 -0.69,0.38 -0.95,0.67 -0.26,0.29 -0.45,0.65 -0.59,1.07 -0.13,0.42 -0.2,0.89 -0.2,1.42l0 0.28c0,0.48 0.05,0.9 0.15,1.26 0.1,0.37 0.24,0.68 0.43,0.94 0.18,0.26 0.4,0.48 0.64,0.65 0.24,0.17 0.51,0.29 0.79,0.37 0.29,0.08 0.58,0.12 0.89,0.12 0.29,-0 0.54,-0.02 0.75,-0.05 0.21,-0.03 0.39,-0.07 0.52,-0.11 0.14,-0.04 0.24,-0.09 0.31,-0.13zm-15.66 0.19l0 -6.8 -0.92 0 -2.31 5.96 -2.29 -5.96 -1.01 0 0 6.8 0.87 0 0 -4.86 1.9 4.86 0.97 0 1.9 -4.86 0 4.86 0.88 0z"/>
   <polygon class="fil1" points="12.5,0 13.16,1.83 12.94,1.83 12.5,0.8 12.07,1.83 11.85,1.83 "/>
   <polygon class="fil1" points="10.34,0.73 11.57,1.95 11.39,2.04 10.65,1.38 10.69,2.38 10.51,2.46 "/>
   <polygon class="fil1" points="8.78,2.14 10.23,2.64 10.12,2.78 9.28,2.54 9.69,3.32 9.58,3.45 "/>
   <polygon class="fil1" points="7.93,3.99 9.38,3.83 9.33,4 8.55,4.14 9.17,4.67 9.13,4.84 "/>
   <polygon class="fil1" points="14.78,0.76 13.53,1.96 13.71,2.05 14.46,1.4 14.4,2.4 14.58,2.49 "/>
   <polygon class="fil1" points="16.27,2.14 14.83,2.64 14.94,2.78 15.78,2.54 15.37,3.32 15.48,3.45 "/>
   <polygon class="fil1" points="17.1,3.91 15.66,3.77 15.7,3.94 16.49,4.07 15.88,4.61 15.92,4.78 "/>
   <path class="fil1" d="M12.56 2.59c-1.34,0 -2.43,1.09 -2.43,2.44 0,1.35 1.09,2.44 2.43,2.44 1.34,0 2.43,-1.09 2.43,-2.44 0,-1.35 -1.09,-2.44 -2.43,-2.44zm0 -0.64c1.69,0 3.06,1.38 3.06,3.08 0,1.7 -1.37,3.08 -3.06,3.08 -1.69,0 -3.06,-1.38 -3.06,-3.08 0,-1.7 1.37,-3.08 3.06,-3.08z"/>
   <polygon class="fil1" points="12.5,10.22 13.16,8.39 12.94,8.39 12.5,9.42 12.07,8.39 11.85,8.39 "/>
   <polygon class="fil1" points="10.42,9.53 11.63,8.29 11.45,8.21 10.72,8.87 10.75,7.88 10.57,7.79 "/>
   <polygon class="fil1" points="8.69,7.96 10.15,7.5 10.04,7.36 9.19,7.58 9.63,6.81 9.53,6.67 "/>
   <polygon class="fil1" points="7.89,6.07 9.33,6.28 9.3,6.11 8.51,5.94 9.16,5.43 9.12,5.26 "/>
   <polygon class="fil1" points="14.64,9.53 13.42,8.29 13.6,8.21 14.34,8.87 14.31,7.88 14.49,7.79 "/>
   <polygon class="fil1" points="16.36,7.97 14.9,7.51 15.01,7.37 15.86,7.58 15.42,6.82 15.53,6.68 "/>
   <polygon class="fil1" points="17.15,6.14 15.71,6.33 15.75,6.15 16.53,6 15.9,5.48 15.94,5.31 "/>
   <path class="fil2" d="M61.62 12.27l20.35 0 0 -0.3 -20.35 0 0 0.3zm-61.62 0l20.35 0 0 -0.3 -20.35 0 0 0.3z"/>
   <path class="fil0" d="M22.47 12.82c-0.16,0 -0.33,-0.03 -0.51,-0.08l0.05 -0.22c0.16,0.05 0.32,0.07 0.46,0.07 0.29,0 0.44,-0.17 0.44,-0.52l0 -0.1 -0.61 0 -0.02 -0.22 0.63 0c0,-0.2 -0.04,-0.35 -0.11,-0.44 -0.07,-0.09 -0.18,-0.14 -0.33,-0.14 -0.13,0 -0.29,0.03 -0.46,0.08l-0.05 -0.22c0.19,-0.06 0.36,-0.08 0.51,-0.08 0.21,0 0.37,0.06 0.5,0.18 0.13,0.12 0.19,0.3 0.19,0.54l0 0.42c0,0.23 -0.06,0.41 -0.19,0.54 -0.13,0.12 -0.29,0.18 -0.5,0.18z"/>
   <polygon class="fil0" points="24.05,12.79 24.05,10.99 24.3,10.99 24.3,11.76 25.04,11.76 25.04,10.99 25.29,10.99 25.29,12.79 25.04,12.79 25.04,11.98 24.3,11.98 24.3,12.79 "/>
   <polygon class="fil0" points="26.23,12.79 26.23,10.99 27.21,10.99 27.21,11.22 26.48,11.22 26.48,11.78 27.1,11.78 27.08,11.99 26.48,11.99 26.48,12.57 27.23,12.57 27.23,12.79 "/>
   <path class="fil0" d="M28.37 11.86l0.34 0c0.09,0 0.16,-0.03 0.21,-0.09 0.05,-0.06 0.08,-0.14 0.08,-0.23 0,-0.1 -0.03,-0.17 -0.08,-0.23 -0.05,-0.06 -0.12,-0.09 -0.21,-0.09l-0.34 0 0 0.65zm-0.25 0.93l0 -1.8 0.6 0c0.16,0 0.29,0.05 0.39,0.16 0.1,0.11 0.15,0.23 0.15,0.39 0,0.15 -0.05,0.28 -0.15,0.39 -0.1,0.11 -0.23,0.16 -0.39,0.16l-0.34 0 0 0.71 -0.25 0z"/>
   <polygon class="fil0" points="30.08,12.79 30.08,10.99 31.03,10.99 31.03,11.22 30.33,11.22 30.33,12.79 "/>
   <path class="fil0" d="M31.81 12.79l0 -1.8 0.25 0 0 1.07c0,0.11 -0,0.19 -0.01,0.26l0.82 -1.32 0.2 0 0 1.8 -0.25 0 0 -1.04c0,-0.09 0,-0.18 0.01,-0.27l-0.81 1.31 -0.21 0z"/>
   <path class="fil0" d="M34.47 11.86l0.35 0 0 -0.65 -0.35 0c-0.09,0 -0.16,0.03 -0.21,0.09 -0.05,0.06 -0.08,0.14 -0.08,0.23 0,0.1 0.03,0.17 0.08,0.23 0.05,0.06 0.12,0.09 0.21,0.09zm-0.55 0.93l0.35 -0.74c-0.11,-0.03 -0.19,-0.1 -0.25,-0.19 -0.06,-0.09 -0.09,-0.2 -0.09,-0.32 0,-0.15 0.05,-0.28 0.15,-0.39 0.1,-0.11 0.23,-0.16 0.39,-0.16l0.61 0 0 1.8 -0.25 0 0 -0.71 -0.3 0 -0.32 0.71 -0.28 0z"/>
   <polygon class="fil0" points="37.15,12.79 37.15,10.99 38.39,10.99 38.39,12.79 38.14,12.79 38.14,11.21 37.4,11.21 37.4,12.79 "/>
   <path class="fil0" d="M39.53 12.09c0,0.17 0.04,0.3 0.11,0.39 0.07,0.08 0.18,0.13 0.3,0.13 0.13,0 0.23,-0.04 0.3,-0.13 0.07,-0.08 0.11,-0.21 0.11,-0.39l0 -0.39c0,-0.17 -0.04,-0.3 -0.11,-0.39 -0.08,-0.09 -0.18,-0.13 -0.3,-0.13 -0.13,0 -0.23,0.04 -0.3,0.13 -0.07,0.09 -0.11,0.22 -0.11,0.39l0 0.39zm-0.25 0.01l0 -0.42c0,-0.23 0.06,-0.41 0.19,-0.54 0.13,-0.13 0.28,-0.19 0.48,-0.19 0.19,0 0.35,0.06 0.48,0.19 0.13,0.13 0.19,0.3 0.19,0.54l0 0.42c0,0.23 -0.06,0.41 -0.19,0.54 -0.13,0.12 -0.28,0.19 -0.48,0.19 -0.19,0 -0.35,-0.06 -0.48,-0.19 -0.13,-0.13 -0.19,-0.3 -0.19,-0.54z"/>
   <path class="fil0" d="M41.77 12.57l0.8 0 0 -1.36 -0.53 0c-0.01,0.31 -0.04,0.58 -0.09,0.82 -0.05,0.23 -0.11,0.41 -0.18,0.54zm-0.47 0.61l0 -0.61 0.19 0c0.09,-0.14 0.17,-0.36 0.23,-0.66 0.06,-0.3 0.09,-0.6 0.09,-0.92l1.01 0 0 1.58 0.22 0 0 0.57 -0.24 0.04 0 -0.39 -1.26 0 0 0.35 -0.24 0.04z"/>
   <path class="fil0" d="M43.72 12.79l0.21 -1.8 0.29 0 0.38 0.99c0.02,0.04 0.04,0.12 0.07,0.23 0.03,-0.11 0.06,-0.19 0.07,-0.23l0.37 -0.99 0.29 0 0.21 1.8 -0.25 0 -0.14 -1.21c-0.01,-0.07 -0.02,-0.16 -0.02,-0.26 -0.04,0.13 -0.06,0.22 -0.08,0.26l-0.33 0.87 -0.28 0 -0.33 -0.87c-0.03,-0.08 -0.06,-0.16 -0.08,-0.26 -0.01,0.16 -0.01,0.24 -0.02,0.26l-0.14 1.21 -0.25 0z"/>
   <path class="fil0" d="M46.67 12.09c0,0.17 0.04,0.3 0.11,0.39 0.07,0.08 0.17,0.13 0.3,0.13 0.13,0 0.23,-0.04 0.3,-0.13 0.07,-0.08 0.11,-0.21 0.11,-0.39l0 -0.39c0,-0.17 -0.04,-0.3 -0.11,-0.39 -0.08,-0.09 -0.18,-0.13 -0.3,-0.13 -0.13,0 -0.23,0.04 -0.3,0.13 -0.07,0.09 -0.11,0.22 -0.11,0.39l0 0.39zm-0.25 0.01l0 -0.42c0,-0.23 0.06,-0.41 0.19,-0.54 0.13,-0.13 0.28,-0.19 0.48,-0.19 0.19,0 0.35,0.06 0.48,0.19 0.13,0.13 0.19,0.3 0.19,0.54l0 0.42c0,0.23 -0.06,0.41 -0.19,0.54 -0.13,0.12 -0.28,0.19 -0.48,0.19 -0.19,0 -0.35,-0.06 -0.48,-0.19 -0.12,-0.13 -0.19,-0.3 -0.19,-0.54z"/>
   <path class="fil0" d="M49.74 12.53l0.05 0.22c-0.18,0.05 -0.35,0.08 -0.51,0.08 -0.21,0 -0.38,-0.06 -0.5,-0.18 -0.13,-0.12 -0.19,-0.3 -0.19,-0.54l0 -0.43c0,-0.23 0.06,-0.41 0.19,-0.53 0.13,-0.12 0.29,-0.19 0.5,-0.19 0.16,0 0.33,0.03 0.51,0.08l-0.05 0.21c-0.16,-0.05 -0.32,-0.07 -0.46,-0.07 -0.14,0 -0.25,0.04 -0.33,0.13 -0.08,0.08 -0.12,0.21 -0.12,0.39l0 0.39c0,0.18 0.04,0.3 0.12,0.39 0.08,0.08 0.19,0.13 0.33,0.13 0.15,0 0.3,-0.03 0.46,-0.07z"/>
   <path class="fil0" d="M50.63 12.79l0 -1.8 0.25 0 0 0.82 0.36 -0.13c0.06,-0.02 0.11,-0.05 0.14,-0.09 0.03,-0.04 0.06,-0.09 0.07,-0.15l0.12 -0.45 0.25 0 -0.13 0.5c-0.02,0.09 -0.06,0.17 -0.1,0.23 -0.04,0.06 -0.1,0.1 -0.17,0.13l0.48 0.94 -0.28 0 -0.43 -0.85 -0.31 0.12 0 0.74 -0.25 0z"/>
   <path class="fil0" d="M52.9 12.09c0,0.17 0.04,0.3 0.11,0.39 0.07,0.08 0.17,0.13 0.3,0.13 0.13,0 0.23,-0.04 0.3,-0.13 0.07,-0.08 0.11,-0.21 0.11,-0.39l0 -0.39c0,-0.17 -0.04,-0.3 -0.11,-0.39 -0.08,-0.09 -0.18,-0.13 -0.3,-0.13 -0.13,0 -0.23,0.04 -0.3,0.13 -0.07,0.09 -0.11,0.22 -0.11,0.39l0 0.39zm-0.25 0.01l0 -0.42c0,-0.23 0.06,-0.41 0.19,-0.54 0.13,-0.13 0.28,-0.19 0.48,-0.19 0.19,0 0.35,0.06 0.48,0.19 0.13,0.13 0.19,0.3 0.19,0.54l0 0.42c0,0.23 -0.06,0.41 -0.19,0.54 -0.13,0.12 -0.28,0.19 -0.48,0.19 -0.19,0 -0.35,-0.06 -0.48,-0.19 -0.13,-0.13 -0.19,-0.3 -0.19,-0.54z"/>
   <path class="fil0" d="M55.12 12.57l0.29 0c0.12,0 0.22,-0.03 0.28,-0.08 0.07,-0.05 0.1,-0.13 0.1,-0.22 0,-0.09 -0.03,-0.16 -0.09,-0.22 -0.06,-0.05 -0.15,-0.08 -0.27,-0.08l-0.31 0 0 0.59zm0 -0.81l0.27 0c0.1,0 0.19,-0.02 0.24,-0.07 0.06,-0.05 0.09,-0.12 0.09,-0.2 0,-0.08 -0.03,-0.15 -0.08,-0.2 -0.05,-0.05 -0.13,-0.07 -0.23,-0.07l-0.29 0 0 0.54zm0.29 1.03l-0.54 0 0 -1.8 0.55 0c0.17,0 0.31,0.04 0.41,0.13 0.1,0.09 0.15,0.2 0.15,0.34 0,0.17 -0.08,0.3 -0.23,0.38 0.1,0.04 0.18,0.1 0.23,0.17 0.05,0.08 0.07,0.16 0.07,0.26 0,0.14 -0.05,0.26 -0.16,0.36 -0.11,0.1 -0.27,0.16 -0.47,0.16z"/>
   <path class="fil0" d="M57.13 12.57l0.37 0c0.09,0 0.16,-0.03 0.21,-0.08 0.05,-0.06 0.08,-0.13 0.08,-0.23 0,-0.1 -0.03,-0.17 -0.08,-0.23 -0.05,-0.06 -0.12,-0.08 -0.21,-0.08l-0.37 0 0 0.63zm-0.25 0.22l0 -1.8 0.25 0 0 0.73 0.37 0c0.16,0 0.29,0.05 0.39,0.15 0.1,0.1 0.15,0.23 0.15,0.38 0,0.15 -0.05,0.28 -0.15,0.38 -0.1,0.1 -0.23,0.15 -0.39,0.15l-0.62 0z"/>
   <path class="fil0" d="M59.29 11.86l0.35 0 0 -0.65 -0.35 0c-0.09,0 -0.16,0.03 -0.21,0.09 -0.05,0.06 -0.08,0.14 -0.08,0.23 0,0.1 0.03,0.17 0.08,0.23 0.05,0.06 0.12,0.09 0.21,0.09zm-0.55 0.93l0.35 -0.74c-0.11,-0.03 -0.19,-0.1 -0.25,-0.19 -0.06,-0.09 -0.09,-0.2 -0.09,-0.32 0,-0.15 0.05,-0.28 0.15,-0.39 0.1,-0.11 0.23,-0.16 0.39,-0.16l0.61 0 0 1.8 -0.25 0 0 -0.71 -0.3 0 -0.32 0.71 -0.28 0z"/>
  </g>
 </g>
</svg>
