<!-- icon666.com - MILLIONS vector ICONS FREE --><svg viewBox="0 0 64 64" xmlns="http://www.w3.org/2000/svg"><g id="filled"><path d="m43.79 17.4v1.74a10.52 10.52 0 0 1 -8.89 10.4 10.52 10.52 0 0 1 -8.9-10.4v-1.74a10.52 10.52 0 0 1 8.9-10.4 10.52 10.52 0 0 1 8.89 10.4z" fill="#259ff2"></path><g fill="#25d7f2"><path d="m53 48.31v6.69h-36v-6.69a17.31 17.31 0 0 1 17.31-17.31h1.38a17.31 17.31 0 0 1 17.31 17.31z"></path><path d="m53 48.31v6.69h-36v-6.69a17.31 17.31 0 0 1 17.31-17.31h1.38a17.31 17.31 0 0 1 17.31 17.31z"></path></g></g><g id="icons"><path d="m40.82 29.73a13.56 13.56 0 0 0 4.76-10.31v-1.84a13.59 13.59 0 0 0 -27.17 0v1.84a13.57 13.57 0 0 0 4.77 10.31 19.4 19.4 0 0 0 -14.18 18.65v6.62a2 2 0 0 0 2 2h42a2 2 0 0 0 2-2v-6.62a19.4 19.4 0 0 0 -14.18-18.65zm-18.41-12.15a9.59 9.59 0 0 1 19.17 0v1.84a9.59 9.59 0 0 1 -19.17 0zm28.59 35.42h-38v-4.62a15.4 15.4 0 0 1 15.38-15.38h7.25a15.4 15.4 0 0 1 15.37 15.38z" fill="#2b39c5"></path></g></svg>