<?xml version="1.0" encoding="UTF-8"?>
<!DOCTYPE svg PUBLIC "-//W3C//DTD SVG 1.1//EN" "http://www.w3.org/Graphics/SVG/1.1/DTD/svg11.dtd">
<!-- Creator: CorelDRAW 2020 (64-Bit) -->
<svg xmlns="http://www.w3.org/2000/svg"  width="119.879mm" height="119.879mm" version="1.1" viewBox="0 0 7141.3 7141.29" xmlns:xlink="http://www.w3.org/1999/xlink">
 <g id="Слой_x0020_1">
  <metadata id="CorelCorpID_0Corel-Layer"/>
  <g id="Objects">
   <g>
    <path fill="#F47B2A" fill-rule="nonzero" d="M7141.3 3570.66c0,1813.6 -1352.05,3311.39 -3103.2,3540.3 -152.94,19.99 -309.02,30.33 -467.45,30.33 -1972.03,0 -3570.65,-1598.62 -3570.65,-3570.64 0,-1972.03 1598.62,-3570.65 3570.65,-3570.65 1703.8,0 3128.86,1193.33 3485.01,2789.79 56.04,251.32 85.64,512.64 85.64,780.87z"/>
    <path fill="#D16218" fill-rule="nonzero" d="M4675.03 1187.75l2380.62 1602.05c56.04,251.32 85.64,512.63 85.64,780.86 0,1813.6 -1352.05,3311.39 -3103.2,3540.3 -1057.88,-706.65 -2037.38,-1373.13 -2138.62,-1483.33l414.69 -332.3c1276.41,-1022.81 2119.59,-2489.82 2360.87,-4107.59l0 0z"/>
    <path fill="white" fill-rule="nonzero" d="M5241.83 5541.76l0 85.87c-455.96,370.89 -1037.6,593.18 -1671.18,593.18 -633.58,0 -1215.22,-222.29 -1671.18,-593.18l0 -85.87c0,-651.57 528.17,-1179.68 1179.68,-1179.68l98.27 -318.16c-270,-134.43 -461.89,-402.88 -488.58,-717.9 -2.91,-42.28 -37.31,-73.59 -77.64,-84.55 -126.83,-32.45 -220.19,-147.45 -220.19,-285.03 0,-93.75 43.42,-176.99 111.23,-231.03 -53.13,-171.34 -111.23,-423.05 -111.23,-702.93 0,-135.63 110.09,-245.77 245.77,-245.77 0,0 55.31,-590.1 835.53,-491.49 801.54,101.4 1202.7,-97.46 1202.7,-97.46 0,0 173.62,168.03 173.62,490.7 0,129.75 -35.93,251.03 -98.21,354.49 -0.11,-0.23 -0.11,-0.41 -0.11,-0.63l-0.17 1.14c0.11,-0.23 0.17,-0.35 0.29,-0.51 32.45,297.31 -24,555.59 -78.72,722.7 48.9,52.68 78.61,123.17 78.61,200.81 0,137.57 -93.41,252.57 -220.19,285.03 -40.28,10.97 -74.73,42.28 -77.69,84.55 -26.68,314.9 -218.47,583.35 -488.52,717.79l98.32 318.27c651.47,-0.02 1179.59,528.09 1179.59,1179.66z"/>
   </g>
  </g>
 </g>
</svg>
