<?xml version="1.0" encoding="utf-8"?>
<!-- Generator: Adobe Illustrator 27.5.0, SVG Export Plug-In . SVG Version: 6.00 Build 0)  -->
<svg version="1.1" xmlns="http://www.w3.org/2000/svg" xmlns:xlink="http://www.w3.org/1999/xlink" x="0px" y="0px"
	 viewBox="0 0 1122 1122" style="enable-background:new 0 0 1122 1122;" xml:space="preserve">
<g id="Bg">
	<rect style="fill:#FFFFFF;" width="1122" height="1122"/>
</g>
<g id="Object">
	<g>
		<path style="fill:#616E7D;" d="M311.837,724.245c0,16.928-9.187,31.277-21.981,36.555c-1.09,0.454-0.786,2.1,0.424,2.1h103.538
			c1.562,0.073,3.159,0.127,4.769,0.127c49.742,0,89.71-41.868,86.581-92.282c-2.693-43.2-37.849-78.368-81.073-81.049
			c-50.39-3.123-92.257,36.827-92.257,86.581l0.042,1.646h-0.042V724.245z"/>
		<path style="fill:#616E7D;" d="M448.801,771.209H348.379c-45.046,0-81.546,36.5-81.546,81.54v39.568H530.34v-39.568
			C530.34,807.709,493.822,771.209,448.801,771.209z M420.06,807.05l-21.376,63.522h-0.618l-20.946-63.196L420.06,807.05z
			 M420.447,822.549l16.631,16.032l-38.492,41.723l-38.503-41.723l16.643-16.032c0,0-24.68-22.387-25.794-24.317
			c-1.973-3.474,15.191-15.016,15.191-15.016l32.463,97.088l32.463-97.088c0,0,17.139,11.542,15.191,15.016
			C445.127,800.162,420.447,822.549,420.447,822.549z"/>
		<polygon style="fill:#AAD4C8;" points="420.06,807.05 377.12,807.376 398.066,870.572 398.684,870.572 		"/>
		<path style="fill:#FFFFFF;" d="M446.241,798.232c1.949-3.474-15.191-15.016-15.191-15.016l-32.463,97.088l38.492-41.723
			l-16.631-16.032C420.447,822.549,445.127,800.162,446.241,798.232z"/>
		<path style="fill:#FFFFFF;" d="M398.586,880.304l-32.463-97.088c0,0-17.164,11.542-15.191,15.016
			c1.114,1.93,25.794,24.317,25.794,24.317l-16.643,16.032L398.586,880.304z"/>
		<path style="fill:#616E7D;" d="M448.801,411.342H348.379c-45.046,0-81.546,36.518-81.546,81.546v39.587H530.34v-39.587
			C530.34,447.86,493.822,411.342,448.801,411.342z M430.886,518.463h-12.031h-40.53h-12.056l-18.701-98.206
			c1.828-0.151,3.674-0.279,5.532-0.279h90.975c1.864,0,3.704,0.128,5.513,0.279L430.886,518.463z"/>
		<polygon style="fill:#616E7D;" points="388.365,452.441 378.324,518.463 388.365,452.441 		"/>
		<path style="fill:#FFFFFF;" d="M408.79,452.441h0.024l10.04,66.022h12.031l18.701-98.206c-1.81-0.151-3.649-0.279-5.513-0.279
			h-90.975c-1.858,0-3.704,0.128-5.532,0.279l18.701,98.206h12.056l10.04-66.022h0.363l-9.883-18.126h39.484l-9.902,18.126H408.79z"
			/>
		<polygon style="fill:#AAD4C8;" points="378.324,518.463 418.855,518.463 408.815,452.441 408.79,452.441 408.427,452.441 
			418.329,434.315 378.845,434.315 388.728,452.441 388.365,452.441 		"/>
		<path style="fill:#616E7D;" d="M485.337,316.415c0-47.89-38.855-86.732-86.751-86.732c-47.926,0-86.75,38.842-86.75,86.732
			c0,47.926,38.824,86.768,86.75,86.768C446.482,403.184,485.337,364.341,485.337,316.415z"/>
		<path style="fill:#616E7D;" d="M773.645,411.342H673.223c-45.033,0-81.552,36.518-81.552,81.546v39.587h263.495v-39.587
			C855.166,447.86,818.684,411.342,773.645,411.342z M755.731,518.463h-12.031l0,0h-40.537h-12.043l-18.701-98.206
			c1.821-0.151,3.668-0.279,5.532-0.279h90.962c1.882,0,3.692,0.128,5.532,0.279L755.731,518.463z"/>
		<path style="fill:#FFFFFF;" d="M733.641,452.441l10.058,66.022h12.031l18.713-98.206c-1.84-0.151-3.65-0.279-5.532-0.279H677.95
			c-1.864,0-3.71,0.128-5.532,0.279l18.701,98.206h12.043l10.047-66.022h0.363l-9.877-18.126h39.471l-9.877,18.126H733.641z"/>
		<polygon style="fill:#AAD4C8;" points="703.162,518.463 743.699,518.463 743.699,518.463 733.641,452.441 733.289,452.441 
			743.167,434.315 703.695,434.315 713.572,452.441 713.209,452.441 		"/>
		<path style="fill:#616E7D;" d="M810.175,316.415c0-47.89-38.842-86.732-86.738-86.732c-47.92,0-86.75,38.842-86.75,86.732
			c0,47.926,38.83,86.744,86.75,86.744C771.333,403.159,810.175,364.341,810.175,316.415z"/>
		<path style="fill:#616E7D;" d="M773.645,768.576H673.223c-45.033,0-81.552,36.518-81.552,81.545v39.587h263.495v-39.587
			C855.166,805.095,818.684,768.576,773.645,768.576z M755.731,875.698h-12.031l0,0h-40.537h-12.043l-18.701-98.231
			c1.821-0.127,3.668-0.272,5.532-0.272h90.962c1.882,0,3.692,0.145,5.532,0.272L755.731,875.698z"/>
		<path style="fill:#FFFFFF;" d="M733.641,809.658l10.058,66.04h12.031l18.713-98.231c-1.84-0.127-3.65-0.272-5.532-0.272H677.95
			c-1.864,0-3.71,0.145-5.532,0.272l18.701,98.231h12.043l10.047-66.04h0.363l-9.877-18.132h39.471l-9.877,18.132H733.641z"/>
		<polygon style="fill:#AAD4C8;" points="703.162,875.698 743.699,875.698 743.699,875.698 733.641,809.658 733.289,809.658 
			743.167,791.526 703.695,791.526 713.572,809.658 713.209,809.658 		"/>
		<path style="fill:#616E7D;" d="M810.175,673.65c0-47.915-38.842-86.751-86.738-86.751c-47.92,0-86.75,38.836-86.75,86.751
			c0,47.908,38.83,86.726,86.75,86.726C771.333,760.376,810.175,721.558,810.175,673.65z"/>
	</g>
</g>
</svg>
