<?xml version="1.0" standalone="no"?>
<!DOCTYPE svg PUBLIC "-//W3C//DTD SVG 20010904//EN"
 "http://www.w3.org/TR/2001/REC-SVG-20010904/DTD/svg10.dtd">
<svg version="1.0" xmlns="http://www.w3.org/2000/svg"
 width="1024.000000pt" height="1024.000000pt" viewBox="0 0 1024.000000 1024.000000"
 preserveAspectRatio="xMidYMid meet">

<g transform="translate(0.000000,1024.000000) scale(0.100000,-0.100000)"
fill="#000000" stroke="none">
<path d="M4728 9540 c-21 -11 -42 -29 -48 -40 -6 -11 -21 -20 -34 -20 -41 0
-259 -40 -308 -56 -66 -22 -136 -90 -144 -143 l-6 -39 -90 -32 c-112 -39 -186
-78 -346 -183 -145 -95 -244 -176 -287 -236 -16 -22 -35 -41 -42 -41 -6 0 -44
18 -85 39 -137 74 -521 211 -731 261 -171 40 -364 63 -460 55 -193 -16 -342
-102 -398 -230 -45 -103 -79 -337 -79 -556 0 -104 3 -140 15 -155 8 -10 15
-27 15 -36 0 -10 9 -22 19 -28 36 -19 51 -41 52 -78 4 -78 17 85 18 214 1 71
8 182 16 245 9 63 18 148 21 189 13 183 42 244 141 290 186 87 539 38 1018
-142 146 -54 358 -155 353 -167 -1 -6 -20 -34 -41 -63 -138 -194 -204 -327
-291 -583 -42 -124 -66 -180 -76 -181 -8 0 -28 6 -44 14 -23 11 -26 16 -15 24
10 7 8 8 -7 3 -17 -4 -23 0 -27 17 -4 12 -9 19 -13 16 -3 -4 -13 -1 -21 7 -8
8 -20 15 -26 15 -7 0 -6 -5 3 -11 12 -9 12 -10 -3 -5 -10 3 -21 6 -23 6 -3 0
-2 4 1 10 3 6 -1 7 -9 4 -9 -3 -16 -2 -16 4 0 9 -28 22 -54 26 -6 0 -68 93
-138 205 -175 278 -256 388 -350 476 -94 86 -163 125 -225 125 -41 0 -44 -2
-43 -35 1 -13 -32 -65 -40 -65 -19 0 -9 -25 26 -65 29 -33 37 -37 45 -25 8 11
9 8 5 -12 -5 -21 -1 -31 13 -39 10 -7 16 -19 14 -28 -2 -9 1 -30 8 -46 7 -17
14 -39 16 -50 2 -11 8 -21 13 -23 6 -2 10 -10 10 -18 0 -8 8 -29 17 -47 9 -18
17 -34 18 -37 2 -20 38 -100 46 -100 5 0 9 -6 9 -13 0 -7 9 -18 21 -25 16 -10
18 -16 9 -26 -8 -11 -7 -18 5 -30 9 -9 11 -16 5 -16 -6 0 -2 -9 8 -20 10 -11
25 -38 32 -59 10 -30 16 -37 31 -34 11 3 19 0 19 -6 0 -6 -6 -11 -14 -11 -9 0
-12 -7 -9 -20 3 -11 9 -20 13 -20 4 0 11 -11 14 -25 6 -24 36 -36 36 -15 0 6
-7 10 -15 10 -8 0 -15 4 -15 10 0 6 10 5 25 -2 14 -6 25 -15 25 -20 0 -5 5 -6
10 -3 6 3 10 1 10 -5 0 -6 -6 -10 -12 -9 -29 3 -49 -2 -43 -11 4 -6 10 -8 15
-5 5 3 7 -8 5 -25 -2 -16 1 -30 7 -30 5 0 8 7 4 15 -4 12 0 14 17 10 15 -4 31
1 47 16 l25 21 -25 -7 c-14 -4 -30 -10 -36 -12 -7 -2 -15 1 -20 8 -5 9 -2 11
8 6 9 -3 19 -3 22 1 11 10 45 12 51 3 3 -5 -3 -17 -12 -27 -13 -12 -14 -19 -5
-22 6 -2 12 -9 12 -15 0 -8 -3 -8 -11 0 -13 13 -39 6 -39 -9 0 -5 4 -7 9 -3 5
3 12 1 16 -5 3 -5 15 -10 27 -10 14 0 18 -5 14 -15 -7 -18 5 -20 22 -3 7 7 12
8 12 4 0 -11 -48 -56 -61 -56 -5 0 -9 5 -9 11 0 5 -5 7 -11 3 -19 -11 18 -26
38 -16 10 5 25 7 33 5 13 -4 13 -3 0 7 -10 8 -11 10 -2 8 19 -5 16 -22 -5 -26
-10 -2 -22 -9 -28 -14 -7 -8 -5 -9 8 -5 13 5 17 1 18 -21 2 -23 2 -24 6 -4 5
27 20 29 28 2 6 -19 17 -25 39 -21 5 1 5 -6 1 -16 -4 -10 -8 -24 -8 -30 0 -7
-6 -13 -13 -13 -6 0 -15 -7 -18 -16 -5 -14 -4 -15 9 -4 12 10 15 10 15 -1 1
-8 7 0 15 16 l13 30 1 -40 c1 -43 20 -88 21 -50 1 21 30 67 30 48 0 -7 -4 -15
-10 -18 -17 -10 -11 -34 10 -45 11 -6 19 -7 18 -3 -4 11 13 12 40 2 32 -12 41
-11 57 5 11 10 11 16 2 26 -10 10 -8 11 7 3 23 -12 65 -5 45 8 -8 4 -10 11 -6
15 4 4 20 -5 36 -20 l29 -28 -74 -51 c-111 -75 -220 -195 -273 -302 -41 -82
-45 -94 -45 -169 -1 -104 29 -167 100 -214 l48 -31 38 64 c74 123 175 192 433
295 180 73 307 115 465 155 154 40 465 98 638 120 218 28 762 58 941 53 l105
-3 40 -75 c67 -124 58 -117 169 -123 64 -3 94 -1 90 6 -4 6 -1 7 6 2 7 -4 44
-7 82 -8 38 0 69 -4 69 -9 0 -5 5 -6 11 -2 6 3 15 0 20 -7 6 -10 9 -10 9 -2 0
7 6 11 13 8 6 -2 30 -6 52 -9 58 -8 69 -11 82 -19 6 -4 14 -1 17 5 5 11 7 11
12 0 3 -6 9 -10 13 -7 5 2 22 1 38 -4 17 -5 37 -5 46 1 12 6 10 -2 -8 -28 -72
-106 26 -193 160 -142 50 19 104 59 111 82 4 11 7 34 5 50 -1 26 0 28 26 21
16 -4 46 -9 68 -11 46 -4 95 -22 95 -35 0 -4 8 -8 18 -8 22 1 93 -11 112 -18
8 -4 17 -7 20 -8 27 -7 80 -30 80 -36 0 -3 11 -5 25 -4 14 2 25 -1 25 -7 0 -6
9 -8 20 -5 11 3 20 2 20 -3 0 -4 11 -6 25 -5 14 2 25 -2 25 -8 0 -5 3 -8 6 -4
3 3 22 -3 42 -13 21 -11 48 -21 62 -24 33 -7 98 -31 106 -39 4 -4 14 -7 22 -7
17 0 204 -91 213 -104 4 -5 12 -5 19 -1 9 5 11 4 6 -3 -6 -11 6 -16 27 -13 4
0 7 -6 7 -14 0 -8 6 -15 14 -15 7 0 25 -9 40 -21 14 -11 30 -17 36 -14 5 3 10
0 10 -7 0 -18 51 -60 67 -54 7 3 13 -1 13 -9 0 -8 3 -14 8 -14 19 3 32 -2 32
-14 0 -7 11 -23 24 -34 29 -25 75 -168 106 -330 25 -129 44 -199 54 -195 3 1
26 2 51 2 54 0 54 -3 24 160 -28 153 -70 299 -119 412 -28 66 -36 94 -27 97
28 10 68 67 83 118 21 73 15 189 -14 263 -18 45 -76 134 -121 186 -5 7 -7 15
-3 19 4 4 0 5 -8 3 -9 -2 -16 6 -18 20 -2 12 -8 22 -13 22 -6 0 -7 -5 -3 -12
4 -7 -7 -2 -24 10 -39 29 -42 34 -35 60 8 34 23 26 21 -10 -2 -25 1 -33 15
-34 12 -1 13 0 2 3 -8 2 -15 11 -15 19 0 9 5 12 12 8 7 -4 8 -3 4 4 -14 23 33
12 48 -10 9 -12 16 -17 16 -11 0 7 -4 15 -10 18 -5 3 -10 11 -10 17 0 7 6 6
15 -2 12 -10 15 -10 15 3 0 9 -4 19 -10 22 -5 3 -10 12 -10 18 0 8 3 9 8 1 4
-6 16 -14 26 -17 17 -7 17 -6 5 9 -12 15 -12 16 7 10 18 -6 22 -2 26 24 4 24
1 30 -14 30 -21 0 -23 -11 -6 -28 9 -9 4 -12 -22 -12 -29 1 -32 2 -17 11 9 6
15 14 12 20 -12 18 5 28 35 19 35 -10 39 1 10 30 -17 17 -18 23 -8 34 11 11
16 11 26 0 17 -19 15 -29 -3 -14 -11 9 -15 9 -15 1 0 -6 6 -14 14 -17 9 -3 13
-16 11 -33 -3 -22 0 -26 18 -26 45 3 66 22 62 60 -2 19 1 35 5 35 4 0 10 8 14
18 3 9 9 24 13 32 5 13 4 13 -10 2 -14 -12 -15 -11 -4 12 l12 25 9 -26 c6 -19
5 -28 -2 -31 -13 -4 -17 -32 -4 -32 13 0 30 48 21 62 -12 18 -11 40 1 33 6 -4
8 -10 5 -15 -3 -5 0 -12 6 -16 9 -5 10 0 6 17 -4 13 -7 27 -7 32 0 4 -6 7 -14
7 -7 0 -19 7 -26 15 -9 10 -9 15 -1 15 6 0 11 -4 11 -10 0 -5 7 -10 15 -10 8
0 15 7 15 16 0 12 6 15 25 10 25 -6 26 -6 10 18 -9 14 -14 30 -10 36 9 15 27
1 21 -17 -4 -9 -1 -13 6 -10 7 2 11 14 10 27 -3 18 0 22 15 16 16 -5 16 -5 2
7 -13 10 -14 15 -4 24 7 7 16 9 19 6 3 -4 6 -1 6 5 0 7 -9 12 -20 12 -11 0
-20 -4 -20 -10 0 -5 -9 -2 -20 7 -11 10 -20 21 -20 26 0 5 8 1 17 -8 16 -16
18 -14 30 29 8 26 18 44 23 41 6 -4 10 5 10 19 0 14 -4 26 -10 26 -5 0 -10 11
-10 25 0 14 5 25 10 25 6 0 10 9 10 20 0 11 7 20 15 20 9 0 25 9 37 20 12 11
27 20 34 20 7 0 16 9 19 20 4 11 10 18 14 16 4 -3 5 10 3 29 -4 31 -2 33 22
31 21 -3 26 2 32 28 3 17 9 33 13 36 10 8 51 94 51 108 0 7 9 22 20 34 11 12
20 35 20 50 0 16 4 27 9 24 10 -7 21 17 21 45 0 11 4 18 9 15 5 -4 7 3 4 14
-3 12 1 22 11 26 10 4 16 18 16 37 0 17 -3 27 -7 24 -3 -4 -11 -2 -18 3 -8 7
-19 3 -33 -11 -12 -11 -22 -17 -22 -14 0 10 -52 -30 -100 -78 -54 -53 -120
-129 -120 -139 0 -3 -19 -26 -42 -50 -92 -94 -238 -288 -238 -315 0 -5 -11
-23 -25 -39 -14 -16 -37 -51 -51 -79 -57 -112 -84 -159 -102 -175 -10 -10 -25
-33 -32 -51 -7 -19 -31 -64 -53 -101 -22 -38 -36 -72 -31 -79 4 -7 3 -9 -3 -6
-6 4 -20 -4 -33 -18 -22 -23 -22 -24 -1 -18 11 3 21 9 21 14 0 5 5 9 10 9 6 0
10 -7 10 -15 0 -8 -4 -15 -10 -15 -5 0 -10 -4 -10 -10 0 -5 8 -10 17 -10 9 0
13 -3 10 -7 -4 -3 -2 -12 5 -20 6 -8 -26 5 -72 29 -45 24 -86 50 -90 58 -5 8
-15 65 -24 126 -54 364 -225 757 -446 1021 -122 148 -269 286 -383 361 -111
73 -267 156 -347 186 -40 15 -48 23 -63 65 -38 108 -170 171 -407 197 -39 4
-73 13 -85 24 -61 54 -69 55 -390 57 -283 3 -302 2 -337 -17z m601 -77 l36
-18 13 -105 c14 -108 22 -220 16 -220 -2 0 -37 11 -78 25 -190 64 -423 47
-601 -42 -69 -35 -222 -192 -262 -268 -71 -135 -91 -307 -59 -490 18 -99 19
-103 64 -194 40 -81 95 -143 163 -187 l44 -28 -164 -18 c-115 -13 -166 -16
-171 -8 -12 19 -30 352 -40 730 -5 206 -12 427 -15 490 -7 130 6 174 58 198
33 16 185 48 269 58 l57 6 9 -33 9 -34 31 56 c50 87 60 93 165 100 51 4 166 5
256 3 131 -3 172 -8 200 -21z m358 -106 c113 -29 139 -46 152 -94 17 -65 30
-446 20 -583 -14 -191 -28 -500 -29 -647 0 -72 -3 -134 -7 -136 -11 -7 -216
10 -293 23 l-65 11 94 97 c99 101 120 137 163 273 30 99 33 334 4 414 -34 94
-107 211 -180 288 l-72 76 -2 73 c-1 40 -7 100 -12 132 -5 32 -6 64 -2 70 4 6
10 -9 13 -34 6 -45 6 -45 7 14 l2 59 58 -6 c31 -4 98 -17 149 -30z m-1506
-269 c0 -29 2 -64 4 -78 2 -14 8 -218 14 -455 6 -236 14 -479 18 -540 4 -60 7
-114 8 -120 0 -5 -45 -15 -100 -21 -304 -37 -947 -209 -1053 -282 -48 -33 -62
-34 -62 -6 0 48 53 280 92 404 64 200 194 450 307 590 21 25 64 78 96 118 126
157 385 341 585 414 41 15 78 27 83 27 4 1 7 -23 8 -51z m1902 -10 c102 -51
256 -148 338 -215 130 -104 290 -298 403 -486 54 -91 73 -133 154 -344 49
-126 132 -446 120 -459 -3 -3 -37 10 -74 29 -79 40 -290 111 -479 161 -126 34
-490 109 -588 121 -39 5 -47 10 -43 23 11 42 46 837 47 1075 0 172 -12 162
122 95z m-810 -2 c140 -48 239 -127 315 -253 57 -94 73 -144 79 -248 4 -58 9
-83 14 -70 10 27 10 -92 -1 -125 -10 -30 -13 -13 -11 55 1 49 0 48 -19 -30
-12 -44 -36 -108 -55 -142 -19 -35 -33 -63 -30 -63 9 0 50 67 72 119 l24 56
-5 -55 c-8 -79 -66 -189 -133 -253 -183 -175 -442 -237 -673 -160 -131 43
-285 181 -351 315 -71 145 -96 224 -66 213 9 -4 13 19 15 92 7 202 97 373 250
476 77 52 98 61 192 88 98 29 278 22 383 -15z m-3103 -606 c0 -5 -2 -10 -4
-10 -3 0 -8 5 -11 10 -3 6 -1 10 4 10 6 0 11 -4 11 -10z m-10 -50 c0 -13 7
-20 20 -20 11 0 20 -6 20 -12 0 -10 2 -10 9 0 11 19 52 -33 44 -55 -4 -11 -2
-14 5 -9 13 8 35 -27 24 -39 -4 -5 -2 -5 4 -2 16 9 38 -19 30 -39 -14 -36
-136 15 -136 57 0 18 -31 43 -38 32 -4 -7 -21 3 -42 24 -34 33 -34 35 -15 48
11 8 25 19 30 24 18 18 45 12 45 -9z m185 -210 c3 -5 2 -10 -4 -10 -5 0 -13 5
-16 10 -3 6 -2 10 4 10 5 0 13 -4 16 -10z m29 -46 c3 -8 2 -13 -3 -9 -5 3 -11
-1 -14 -7 -2 -7 -8 -10 -12 -6 -4 4 -1 14 6 22 17 19 16 19 23 0z m-104 -150
c0 -8 -4 -12 -10 -9 -5 3 -10 13 -10 21 0 8 5 12 10 9 6 -3 10 -13 10 -21z
m-24 -30 c8 3 14 0 14 -7 0 -8 4 -7 10 3 5 8 10 12 12 10 2 -3 8 -14 14 -24 6
-11 19 -24 29 -30 26 -15 48 -36 38 -36 -4 0 -14 4 -22 9 -19 12 -43 2 -37
-15 3 -8 1 -14 -4 -14 -6 0 -10 5 -10 10 0 6 -6 10 -12 9 -32 -4 -39 1 -28 20
10 19 4 54 -9 48 -6 -4 -40 28 -42 39 0 4 5 11 13 15 9 6 14 1 16 -17 2 -17 8
-24 18 -20z m248 -44 c-6 -6 -10 -2 -11 12 -2 16 1 18 10 9 7 -7 8 -14 1 -21z
m-139 -60 c11 -12 13 -20 6 -20 -7 0 -9 -4 -6 -10 8 -14 -7 -12 -25 3 -19 15
-22 47 -5 47 6 0 20 -9 30 -20z m182 -22 c-3 -7 -5 -2 -5 12 0 14 2 19 5 13 2
-7 2 -19 0 -25z m2305 -38 c145 -46 303 -45 432 2 57 21 63 21 220 9 389 -31
792 -92 996 -152 518 -152 794 -289 993 -494 91 -94 143 -275 95 -332 -17 -21
-26 -15 -38 22 -24 73 -89 127 -252 207 -566 279 -1431 426 -2378 405 -895
-21 -1578 -153 -2080 -404 -160 -79 -250 -149 -280 -216 l-18 -40 -16 31 c-46
89 17 256 138 370 157 147 487 316 745 382 42 10 102 28 135 39 203 71 817
167 1166 184 36 2 68 4 72 5 3 1 35 -7 70 -18z m2903 -70 c3 -5 1 -10 -4 -10
-6 0 -11 5 -11 10 0 6 2 10 4 10 3 0 8 -4 11 -10z m-24 -93 c-10 -9 -11 -8 -5
6 3 10 9 15 12 12 3 -3 0 -11 -7 -18z m-5191 -33 c0 -2 -9 -4 -20 -4 -11 0
-20 4 -20 9 0 5 9 7 20 4 11 -3 20 -7 20 -9z m5166 -42 c-3 -2 -1 -12 4 -21 7
-13 4 -17 -13 -18 -12 0 -16 1 -9 4 6 3 12 9 12 15 0 6 -7 7 -16 4 -13 -5 -14
-4 -6 7 7 8 9 17 5 21 -4 4 1 4 10 0 10 -3 16 -9 13 -12z m10 -65 c4 -7 4 -9
-1 -5 -4 4 -16 3 -27 -3 -21 -11 -34 -7 -25 8 8 13 46 13 53 0z m-236 -13 c0
-8 -4 -12 -10 -9 -5 3 -10 10 -10 16 0 5 5 9 10 9 6 0 10 -7 10 -16z m74 1
c-4 -8 -8 -15 -10 -15 -2 0 -4 7 -4 15 0 8 4 15 10 15 5 0 7 -7 4 -15z m-4974
-29 c0 -3 -4 -8 -10 -11 -5 -3 -10 -1 -10 4 0 6 5 11 10 11 6 0 10 -2 10 -4z
m4837 -28 c-3 -7 -5 -2 -5 12 0 14 2 19 5 13 2 -7 2 -19 0 -25z m42 -11 c1 -5
-3 -5 -9 -2 -5 3 -10 16 -9 28 0 21 1 21 9 2 5 -11 9 -24 9 -28z m-19 -47 c0
-5 -2 -10 -4 -10 -3 0 -8 5 -11 10 -3 6 -1 10 4 10 6 0 11 -4 11 -10z"/>
<path d="M4478 8035 c6 -11 21 -29 34 -40 22 -19 22 -19 -2 10 -40 48 -43 51
-32 30z"/>
<path d="M5695 8171 c-3 -5 -1 -12 5 -16 5 -3 10 1 10 9 0 18 -6 21 -15 7z"/>
<path d="M5665 8089 c-4 -6 -5 -12 -2 -15 2 -3 7 2 10 11 7 17 1 20 -8 4z"/>
<path d="M5190 8987 c0 -2 21 -12 48 -22 26 -10 58 -29 71 -42 13 -12 32 -23
43 -23 13 0 17 -4 12 -12 -4 -7 -3 -10 1 -5 10 9 47 -22 39 -34 -3 -5 0 -9 5
-9 14 0 14 -47 1 -55 -6 -4 -10 5 -10 20 0 17 -8 29 -25 37 -23 10 -29 20 -27
40 1 3 -5 9 -13 12 -8 3 -15 1 -15 -5 0 -7 -10 -9 -25 -5 -26 7 -109 -3 -100
-12 2 -3 0 -11 -6 -19 -9 -9 -8 -17 0 -27 10 -12 8 -13 -8 -9 -15 4 -21 1 -21
-11 0 -9 -4 -24 -9 -34 -6 -9 -24 -48 -42 -87 -18 -38 -35 -74 -37 -79 -3 -4
9 -5 25 -2 59 13 174 22 179 14 3 -4 -3 -20 -14 -36 -25 -36 -152 -266 -152
-275 0 -4 9 -7 19 -7 32 0 36 -21 8 -42 -15 -11 -43 -46 -63 -79 -20 -32 -40
-59 -45 -59 -11 0 -17 28 -17 88 0 29 -2 56 -6 59 -8 9 -36 -17 -36 -34 0 -12
-3 -11 -17 2 -11 12 -17 34 -17 69 0 28 -4 54 -10 58 -8 5 -8 12 0 25 17 28
34 27 34 -1 0 -28 14 -35 24 -11 3 8 10 15 17 15 7 0 8 -7 4 -17 -12 -33 -10
-38 15 -36 14 1 18 0 8 -3 -19 -6 -25 -34 -7 -34 15 0 36 57 44 122 l7 57 -93
-31 c-52 -17 -109 -32 -127 -34 -18 -2 -37 -6 -42 -9 -13 -8 -31 40 -24 60 4
8 1 15 -4 15 -7 0 -9 20 -5 53 4 35 0 68 -11 101 -9 27 -19 69 -23 93 -5 37
-2 46 16 63 17 14 22 28 20 57 -3 43 6 62 41 86 35 24 17 21 -38 -7 -72 -37
-178 -158 -149 -169 6 -3 4 -6 -7 -6 -11 -1 -16 -6 -13 -15 3 -8 1 -16 -4 -18
-34 -11 -50 -184 -28 -290 25 -115 137 -266 231 -312 58 -28 156 -56 191 -55
14 0 17 2 7 6 -23 8 -40 34 -40 60 0 32 16 29 32 -7 9 -22 22 -32 48 -37 33
-6 34 -7 10 -14 -18 -5 -9 -7 31 -8 53 -1 126 16 115 26 -6 6 19 33 29 33 4 0
5 -8 3 -18 -5 -17 -3 -17 28 -3 24 11 34 22 34 37 0 24 19 44 21 22 1 -7 1
-17 0 -21 -1 -5 3 -5 9 -2 6 4 9 10 6 13 -7 7 13 32 26 32 5 0 6 -4 3 -10 -10
-16 1 -11 16 7 10 11 10 14 2 9 -7 -4 -13 -2 -13 3 0 6 5 11 11 11 6 0 19 10
30 23 17 20 18 20 13 2 -6 -17 -3 -17 17 5 21 22 50 75 93 169 12 26 15 189 4
236 -30 134 -124 254 -241 312 -64 32 -107 48 -107 40z m-30 -856 c0 -5 -6
-12 -12 -14 -10 -4 -9 -8 2 -16 12 -8 12 -13 2 -23 -6 -6 -12 -10 -13 -7 0 2
-2 13 -5 24 -2 11 -2 26 1 33 5 14 25 17 25 3z"/>
<path d="M4550 8210 c6 -11 13 -20 16 -20 2 0 0 9 -6 20 -6 11 -13 20 -16 20
-2 0 0 -9 6 -20z"/>
<path d="M4570 8176 c0 -2 8 -10 18 -17 15 -13 16 -12 3 4 -13 16 -21 21 -21
13z"/>
<path d="M2271 7931 c-7 -5 -12 -14 -9 -21 2 -7 10 -4 22 9 19 21 12 28 -13
12z"/>
<path d="M7861 7923 c-1 -6 -4 -20 -7 -30 -5 -17 -5 -17 6 0 6 10 9 23 6 30
-3 9 -5 9 -5 0z"/>
<path d="M2316 7743 c-6 -14 -5 -15 5 -6 7 7 10 15 7 18 -3 3 -9 -2 -12 -12z"/>
<path d="M7790 7714 c0 -8 5 -12 10 -9 6 3 10 10 10 16 0 5 -4 9 -10 9 -5 0
-10 -7 -10 -16z"/>
<path d="M2452 7568 c-16 -16 -15 -25 2 -25 8 0 12 6 8 15 -3 10 -1 13 6 8 7
-4 12 -2 12 3 0 14 -13 14 -28 -1z"/>
<path d="M7730 7567 c0 -9 4 -18 9 -21 5 -4 8 1 7 9 -3 21 -16 31 -16 12z"/>
<path d="M7635 7449 c-11 -16 -1 -19 13 -3 7 8 8 14 3 14 -5 0 -13 -5 -16 -11z"/>
<path d="M7570 7401 c0 -5 7 -11 14 -14 10 -4 13 -1 9 9 -6 15 -23 19 -23 5z"/>
<path d="M7565 7369 c-4 -6 -5 -12 -2 -15 2 -3 7 2 10 11 7 17 1 20 -8 4z"/>
<path d="M7585 7290 c-3 -5 -1 -10 4 -10 6 0 11 5 11 10 0 6 -2 10 -4 10 -3 0
-8 -4 -11 -10z"/>
<path d="M4025 7165 c-73 -38 -86 -98 -31 -149 54 -52 140 -70 195 -41 32 16
41 33 41 79 0 44 -24 74 -84 102 -60 28 -80 29 -121 9z"/>
<path d="M6315 6764 c-120 -19 -238 -76 -316 -153 -68 -69 -129 -189 -155
-305 -55 -255 70 -524 293 -632 320 -155 680 -3 804 341 27 75 29 219 5 315
-47 184 -228 368 -410 416 -57 15 -175 25 -221 18z m11 -190 c19 -9 48 -32 65
-52 29 -33 31 -40 27 -94 -5 -64 -21 -93 -81 -142 -73 -58 -186 -45 -243 30
-25 32 -29 47 -29 99 0 51 4 67 27 97 53 70 159 98 234 62z"/>
<path d="M3602 6745 c-182 -40 -311 -148 -392 -329 -40 -89 -54 -159 -54 -261
0 -143 52 -269 151 -369 123 -124 252 -176 433 -176 242 0 460 177 525 427 19
74 19 202 0 278 -41 161 -156 310 -293 379 -130 65 -236 80 -370 51z m75 -174
c47 -22 71 -53 79 -103 13 -79 -49 -184 -123 -209 -47 -15 -124 -7 -156 17
-38 28 -67 86 -67 134 0 132 142 217 267 161z"/>
<path d="M888 6155 c-49 -25 -88 -49 -88 -54 0 -5 11 -51 25 -102 13 -50 31
-131 40 -178 23 -124 33 -151 79 -202 44 -50 128 -222 495 -1024 51 -110 107
-231 126 -268 19 -37 35 -76 35 -85 0 -11 -19 -27 -52 -44 -74 -36 -135 -83
-159 -121 -17 -27 -20 -44 -16 -109 6 -127 59 -185 182 -197 l59 -6 48 -90
c26 -49 48 -97 48 -105 0 -8 21 -26 47 -40 112 -59 150 -118 169 -260 18 -127
17 -220 -1 -310 -30 -144 -30 -142 3 -206 17 -32 51 -106 77 -162 96 -216 175
-362 220 -407 77 -77 225 -135 347 -135 70 0 196 32 257 66 188 101 311 296
311 489 0 45 3 55 17 55 15 0 15 1 -1 13 -9 7 -28 46 -42 86 -35 104 -356 739
-405 801 -47 59 -93 84 -202 106 -83 18 -121 38 -172 95 -42 46 -42 76 0 115
27 24 26 45 -2 158 -12 51 -12 60 0 75 47 54 64 133 43 205 -40 135 -189 175
-358 94 l-76 -36 -12 27 c-7 14 -30 64 -50 111 -53 120 -135 298 -305 660
-151 323 -262 574 -285 645 -23 72 -58 131 -112 190 -29 32 -76 88 -104 124
-35 46 -57 67 -75 68 -13 1 -63 -18 -111 -42z m135 -98 c14 -23 54 -75 90
-115 53 -59 69 -85 88 -144 12 -40 44 -118 70 -173 25 -55 56 -122 69 -150 12
-27 52 -113 88 -190 129 -278 422 -928 422 -938 0 -11 -148 -79 -159 -73 -4 3
-11 18 -14 34 -3 15 -36 91 -72 167 -37 77 -95 201 -130 275 -36 74 -135 284
-221 465 -85 182 -165 354 -177 383 -13 35 -34 65 -59 85 -22 18 -38 39 -38
51 0 29 -46 245 -59 279 -6 16 -11 30 -11 33 0 5 72 53 82 53 3 1 17 -18 31
-42z m1235 -1721 c27 -27 38 -89 23 -128 -14 -37 -34 -48 -232 -134 -94 -40
-226 -103 -293 -138 -67 -35 -139 -67 -159 -71 -70 -14 -121 25 -132 102 -10
64 15 90 156 160 124 62 496 227 534 236 35 9 79 -3 103 -27z m-52 -287 c9
-15 44 -149 44 -171 0 -12 -22 -25 -77 -45 -94 -33 -270 -122 -336 -169 -42
-30 -48 -32 -53 -17 -4 10 -21 53 -39 96 l-33 78 21 13 c75 46 435 223 459
225 4 1 10 -4 14 -10z m-31 -309 c-3 -5 -11 -10 -17 -10 -6 0 -19 -6 -27 -14
-9 -7 -32 -16 -51 -19 -30 -5 -26 -1 25 23 65 31 80 36 70 20z m109 -160 c8
-8 0 -9 -34 -4 -59 9 -73 22 -20 19 23 -2 47 -8 54 -15z m331 -53 c31 -33 85
-132 218 -398 97 -195 183 -374 192 -398 15 -44 20 -125 9 -177 -5 -27 -8 -29
-57 -29 -58 0 -72 6 -88 38 -12 21 -11 21 8 5 26 -23 44 -23 77 3 34 26 35 76
3 127 -13 20 -98 188 -189 372 -150 302 -193 384 -252 473 l-18 27 28 0 c19 0
39 -13 69 -43z m-365 -32 c54 -28 63 -44 288 -505 196 -401 212 -439 212 -494
0 -60 -13 -84 -55 -102 -82 -34 -143 17 -217 181 -126 279 -183 404 -268 585
-50 107 -94 201 -97 208 -11 25 9 82 38 112 34 34 56 37 99 15z m368 -360 c-3
-3 -9 2 -12 12 -6 14 -5 15 5 6 7 -7 10 -15 7 -18z"/>
<path d="M5265 5890 c-3 -5 1 -10 10 -10 9 0 13 5 10 10 -3 6 -8 10 -10 10 -2
0 -7 -4 -10 -10z"/>
<path d="M5234 5856 c-3 -14 -13 -26 -21 -26 -8 0 -11 -4 -8 -10 3 -5 2 -10
-3 -10 -5 0 -14 -11 -20 -25 -6 -14 -9 -25 -6 -25 10 0 86 75 96 95 6 11 7 17
3 13 -5 -4 -14 -3 -21 3 -10 8 -15 5 -20 -15z"/>
<path d="M4424 5700 c-30 -12 -48 -62 -40 -113 25 -157 215 -267 409 -237 85
13 156 49 218 111 l46 45 50 -45 c118 -110 281 -145 436 -94 58 18 143 98 175
165 30 61 29 122 -3 153 -13 14 -31 25 -40 25 -30 0 -65 -46 -65 -85 0 -111
-129 -186 -268 -155 -92 20 -150 57 -193 122 -20 32 -40 69 -43 83 -5 21 -12
25 -45 25 -37 0 -39 -2 -60 -53 -30 -74 -72 -121 -134 -151 -96 -47 -202 -44
-277 6 -49 33 -69 67 -79 126 -4 29 -12 57 -17 61 -16 15 -48 20 -70 11z"/>
<path d="M2920 4666 c0 -2 8 -10 18 -17 15 -13 16 -12 3 4 -13 16 -21 21 -21
13z"/>
<path d="M7164 4638 c-44 -33 -52 -42 -24 -28 34 18 75 50 63 50 -6 0 -23 -10
-39 -22z"/>
<path d="M2987 4606 c-4 -10 -1 -13 8 -9 8 3 12 9 9 14 -7 12 -11 11 -17 -5z"/>
<path d="M7261 4590 c-31 -26 -17 -26 16 0 14 11 22 20 17 20 -5 -1 -20 -10
-33 -20z"/>
<path d="M3060 4566 c0 -2 7 -7 16 -10 8 -3 12 -2 9 4 -6 10 -25 14 -25 6z"/>
<path d="M7000 4535 c-14 -8 -19 -14 -10 -14 8 0 24 6 34 14 25 19 9 19 -24 0z"/>
<path d="M7190 4540 c-9 -6 -10 -10 -3 -10 6 0 15 5 18 10 8 12 4 12 -15 0z"/>
<path d="M3143 4520 c18 -15 27 -31 27 -50 0 -22 6 -30 30 -39 32 -11 64 -5
54 10 -3 5 0 9 5 9 27 0 6 19 -56 51 -85 43 -95 46 -60 19z"/>
<path d="M6840 4454 c-63 -31 -155 -69 -205 -86 -49 -17 -94 -35 -100 -40 -5
-5 10 -2 33 6 26 9 60 13 85 10 44 -5 92 12 92 34 0 14 49 42 74 42 10 0 26 8
37 19 11 10 36 24 56 30 20 7 39 18 42 26 3 8 4 15 3 14 -1 0 -54 -25 -117
-55z"/>
<path d="M7080 4469 c-17 -13 -18 -17 -5 -10 33 17 51 31 40 31 -5 0 -21 -10
-35 -21z"/>
<path d="M3280 4450 c0 -6 7 -10 15 -10 8 0 15 2 15 4 0 2 -7 6 -15 10 -8 3
-15 1 -15 -4z"/>
<path d="M3329 4427 c12 -15 11 -17 -5 -17 -29 -1 25 -29 55 -30 13 0 22 -3
18 -6 -3 -4 0 -19 8 -34 11 -21 27 -31 62 -40 96 -23 103 -23 118 -4 11 16 16
17 37 5 14 -7 31 -11 39 -10 8 2 34 -2 59 -8 25 -6 73 -18 107 -27 35 -9 71
-16 80 -15 23 1 -51 25 -152 48 -44 10 -152 46 -240 80 -204 79 -204 79 -186
58z"/>
<path d="M6995 4430 c3 -5 8 -10 11 -10 2 0 4 5 4 10 0 6 -5 10 -11 10 -5 0
-7 -4 -4 -10z"/>
<path d="M6883 4386 c4 -10 1 -13 -7 -10 -8 3 -17 0 -21 -6 -5 -8 2 -10 21 -8
32 3 43 23 18 32 -11 4 -15 2 -11 -8z"/>
<path d="M6925 4390 c-3 -5 -2 -10 4 -10 5 0 13 5 16 10 3 6 2 10 -4 10 -5 0
-13 -4 -16 -10z"/>
<path d="M6735 4314 c-22 -8 -47 -21 -55 -29 -12 -12 -6 -12 30 2 46 17 92 44
75 42 -6 0 -28 -7 -50 -15z"/>
<path d="M6400 4294 l-45 -14 48 5 c50 5 103 25 62 24 -11 -1 -40 -7 -65 -15z"/>
<path d="M3938 4233 c7 -3 16 -2 19 1 4 3 -2 6 -13 5 -11 0 -14 -3 -6 -6z"/>
<path d="M4018 4213 c7 -3 16 -2 19 1 4 3 -2 6 -13 5 -11 0 -14 -3 -6 -6z"/>
<path d="M3665 4142 c-95 -58 -244 -174 -309 -240 -59 -61 -59 -61 -107 -55
-77 9 -112 -3 -215 -77 -83 -59 -103 -79 -129 -128 l-30 -57 78 -107 c87 -119
228 -331 283 -426 l36 -62 -27 -31 c-46 -55 -65 -104 -65 -166 0 -80 12 -115
59 -171 23 -27 41 -51 41 -54 0 -3 -9 -8 -20 -11 -30 -8 -40 -48 -39 -150 1
-54 4 -82 8 -67 6 22 8 23 14 7 4 -10 7 -32 7 -49 0 -25 -3 -28 -14 -19 -24
20 -36 -42 -36 -188 0 -75 -7 -185 -14 -244 -22 -162 -2 -247 77 -331 33 -35
35 -40 39 -129 3 -81 1 -95 -15 -112 -33 -34 -47 -81 -47 -159 0 -101 15 -166
49 -207 l28 -33 184 -8 c223 -9 455 -24 649 -44 215 -21 428 -37 489 -35 61 1
93 18 122 64 49 80 75 267 45 325 -17 32 -17 32 25 93 22 33 52 85 66 115 l24
54 138 0 137 0 15 -37 c8 -20 35 -75 62 -121 45 -79 47 -85 36 -121 -15 -50
11 -203 47 -278 46 -95 88 -108 289 -85 50 6 144 15 210 21 66 6 167 15 225
20 58 6 229 15 380 21 151 6 290 14 309 16 73 11 111 89 111 230 0 72 -17 122
-54 158 -23 24 -24 29 -19 124 6 98 6 99 45 141 l39 42 123 -9 c317 -24 658
65 939 245 280 179 529 452 677 743 41 81 64 137 56 134 -9 -3 -27 3 -42 15
-31 25 -51 16 -80 -38 -10 -20 -23 -36 -29 -35 -5 1 -20 19 -32 40 -12 21 -26
44 -30 49 -5 6 -14 19 -20 29 -8 15 -11 7 -17 -42 -5 -42 -13 -65 -28 -78 -20
-19 -43 -62 -40 -76 1 -5 -2 -7 -7 -5 -10 2 -51 -41 -51 -55 0 -5 -4 -7 -8 -4
-5 3 -15 -6 -22 -19 -11 -21 -33 -31 -62 -26 -4 0 -5 -6 -2 -14 4 -9 1 -15 -7
-15 -8 0 -5 -6 7 -16 10 -8 14 -13 8 -10 -12 6 -76 -49 -67 -58 3 -3 -10 -13
-30 -21 -21 -8 -37 -20 -37 -26 0 -5 -4 -7 -10 -4 -5 3 -10 -1 -10 -9 0 -10
-9 -16 -22 -17 -21 0 -21 -1 -4 -8 26 -10 4 -24 -27 -17 -12 3 -16 3 -9 0 6
-3 12 -12 12 -20 0 -9 -5 -12 -10 -9 -6 4 -23 -5 -38 -20 -15 -15 -39 -33 -55
-42 -18 -9 -27 -20 -23 -28 3 -8 0 -17 -6 -21 -7 -4 -8 -3 -4 4 18 29 -30 8
-63 -27 -31 -33 -40 -37 -56 -28 -17 9 -18 8 -8 -4 9 -11 7 -19 -13 -38 -14
-14 -24 -18 -22 -10 2 8 7 17 13 21 5 4 6 10 3 14 -4 3 -17 -10 -29 -30 -24
-41 -29 -45 -22 -16 7 28 -13 25 -22 -2 -4 -13 -7 -27 -6 -31 1 -5 -3 -6 -8
-2 -6 3 -8 12 -4 20 3 8 0 15 -6 15 -6 0 -11 -5 -11 -11 0 -5 -5 -7 -12 -3 -8
5 -9 0 -5 -17 6 -23 6 -23 -9 -4 -12 16 -16 17 -23 6 -5 -7 -13 -11 -19 -7
-11 7 -25 -21 -17 -34 3 -4 -4 -6 -16 -3 -15 4 -17 8 -8 14 8 4 10 11 7 15 -4
3 -21 -4 -39 -17 -18 -13 -48 -24 -66 -26 -27 -2 -33 1 -33 18 0 11 -4 17 -10
14 -5 -3 -10 -16 -10 -28 l0 -21 -15 21 c-9 13 -22 20 -30 17 -8 -4 -15 -1
-15 5 0 6 -6 10 -12 8 -7 -1 -12 4 -10 11 1 8 -3 12 -10 10 -14 -5 -58 55 -58
78 0 22 18 37 80 66 63 28 124 78 145 117 12 24 55 140 55 149 0 2 -15 -16
-33 -39 -42 -56 -130 -124 -187 -144 -109 -40 -380 -23 -380 24 0 8 74 31 100
31 11 0 20 4 20 9 0 10 -35 24 -105 43 l-50 14 -5 99 c-7 119 -23 158 -93 229
l-49 49 6 61 c4 34 12 95 19 137 12 74 14 78 94 175 148 179 277 354 312 422
24 49 35 85 38 132 5 61 3 68 -26 108 -40 54 -140 128 -194 144 -23 6 -69 11
-102 10 -56 -1 -62 1 -77 28 -27 48 -273 238 -367 283 -44 22 -60 21 -123 -3
-29 -11 -69 -20 -89 -20 -20 0 -62 -9 -95 -19 -84 -27 -413 -80 -506 -81 l-47
0 -78 -102 c-42 -57 -109 -143 -148 -193 -40 -49 -116 -154 -169 -232 -54 -79
-101 -143 -106 -143 -4 0 -10 6 -13 13 -3 7 -100 140 -216 296 -116 155 -221
299 -233 321 l-23 39 -85 6 c-131 9 -475 70 -650 115 -43 11 -87 20 -97 20
-10 -1 -45 -17 -78 -38z m-60 -301 c47 -32 101 -62 120 -65 19 -4 35 -13 35
-20 0 -6 -21 -68 -46 -137 -25 -68 -51 -139 -57 -156 -12 -39 -23 -42 -31 -10
-10 41 -128 219 -187 281 l-58 62 61 52 c33 29 64 52 69 52 5 0 47 -26 94 -59z
m3057 23 c23 -20 46 -41 50 -47 3 -6 -17 -38 -46 -72 -29 -34 -87 -116 -130
-183 -44 -68 -80 -121 -81 -120 -2 2 -12 42 -24 90 -11 47 -29 106 -40 130
-10 24 -22 58 -25 74 -6 28 -4 33 22 43 16 7 65 37 108 66 43 30 89 54 101 55
11 0 41 -16 65 -36z m-552 -31 c0 -42 -41 -247 -52 -260 -18 -22 -46 -15 -256
57 -112 39 -216 70 -232 70 -32 0 -50 -23 -50 -61 0 -36 -44 -83 -127 -134
-43 -27 -106 -69 -141 -93 -35 -24 -65 -43 -67 -40 -7 6 251 347 303 400 28
29 49 43 53 37 11 -19 234 2 419 40 25 5 69 9 98 10 50 1 52 0 52 -26z m-1785
-13 c77 -12 169 -22 205 -23 63 -2 67 -4 101 -42 27 -31 237 -291 292 -362 22
-29 -17 -10 -110 53 -123 83 -188 146 -209 201 -16 40 -19 43 -55 43 -58 0
-160 -26 -326 -83 -101 -35 -155 -49 -162 -42 -11 11 -32 265 -24 279 7 11
113 2 288 -24z m-405 -80 c0 -63 28 -241 41 -266 27 -53 131 -69 196 -32 l38
22 -38 -36 c-26 -25 -37 -43 -33 -55 3 -10 14 -56 25 -103 11 -47 22 -92 26
-102 4 -11 0 -18 -12 -21 -10 -3 -51 -15 -91 -28 -40 -12 -74 -20 -77 -17 -2
2 -12 33 -21 69 -22 87 -79 199 -102 199 -32 0 -79 -38 -112 -89 -19 -28 -34
-51 -35 -51 -2 0 5 33 15 73 46 193 75 289 117 394 48 120 62 130 63 43z
m2320 -20 c0 -9 4 -20 9 -25 20 -23 135 -415 160 -550 7 -33 14 -69 16 -81 4
-20 -1 -22 -78 -27 -45 -3 -91 -9 -102 -12 -18 -5 -24 2 -41 52 -21 58 -21 58
-70 67 -27 4 -55 10 -61 12 -9 2 -13 24 -13 63 0 43 -5 65 -19 82 l-19 24
-305 0 c-291 0 -306 -1 -327 -20 -20 -18 -22 -27 -16 -77 5 -51 3 -57 -14 -63
-12 -4 -28 -18 -37 -31 -14 -22 -15 -48 -9 -202 4 -130 10 -182 21 -199 15
-23 87 -49 105 -38 11 7 242 26 248 21 1 -2 -8 -21 -23 -41 -14 -21 -25 -46
-25 -56 0 -21 -38 -31 -130 -33 -36 -1 -72 -6 -80 -11 -8 -4 -12 -5 -8 0 11
11 -58 63 -99 74 -19 5 -74 7 -122 4 l-89 -6 -1 267 c-2 249 -1 267 16 272 34
11 60 26 89 51 16 13 22 21 14 17 -29 -14 12 21 55 47 33 19 37 20 25 4 -14
-17 -14 -18 8 -6 12 6 22 19 22 28 0 9 3 13 6 10 4 -4 28 9 54 28 26 19 50 32
53 29 16 -17 123 68 145 115 12 26 24 37 42 38 22 2 23 2 5 -6 -24 -10 -23
-11 85 -39 89 -24 251 -69 301 -84 19 -6 47 -8 62 -4 42 10 86 56 93 96 4 26
3 31 -5 20 -10 -13 -11 -13 -11 0 0 17 27 189 37 235 l6 30 13 -30 c7 -16 13
-37 14 -45z m-2936 11 c80 -53 212 -254 251 -381 7 -21 6 -23 -7 -13 -12 11
-19 8 -38 -12 -13 -14 -28 -25 -34 -25 -5 0 -31 -18 -57 -40 -52 -44 -57 -45
-111 -26 -21 8 -36 10 -33 7 2 -4 0 -12 -4 -19 -8 -13 -196 241 -247 335 l-29
51 20 23 c29 32 157 126 180 131 31 8 67 -2 109 -31z m3672 -7 c66 -44 104
-91 104 -129 0 -49 -136 -270 -217 -354 -19 -20 -22 -21 -16 -5 7 18 6 18 -17
3 -51 -33 -120 -35 -120 -4 0 9 -6 12 -16 8 -11 -4 -15 -1 -12 11 2 12 -12 26
-42 43 -25 13 -54 33 -65 44 -19 18 -20 18 -43 -3 -17 -17 -11 -1 23 62 106
192 169 279 239 326 69 46 110 46 182 -2z m-2254 -377 c70 -48 162 -108 205
-132 l78 -44 -2 -183 c0 -101 -2 -215 -2 -255 l-1 -71 -114 -4 c-111 -3 -116
-4 -161 -35 -25 -18 -50 -33 -56 -33 -6 0 -7 -4 -4 -10 7 -11 -8 -14 -18 -4
-3 4 -30 8 -59 9 -98 6 -152 15 -160 28 -4 6 -20 12 -35 12 -26 0 -28 3 -26
35 7 98 14 119 55 162 48 51 73 102 87 183 31 174 -93 400 -239 435 -54 13
-67 30 -22 30 36 0 149 33 197 57 l39 20 55 -56 c31 -31 113 -96 183 -144z
m-456 4 c65 -48 112 -103 140 -166 38 -81 42 -140 15 -200 -34 -77 -64 -109
-138 -147 -180 -94 -301 -96 -413 -7 -75 59 -94 107 -95 234 0 91 3 105 29
158 16 32 34 56 40 54 5 -2 22 -41 38 -88 53 -160 58 -169 83 -169 25 0 164
31 254 57 l53 15 -6 37 c-5 31 -33 137 -62 234 -8 26 17 21 62 -12z m1763 -85
c16 -10 15 -106 -1 -107 -7 0 -74 0 -148 0 -94 1 -150 -3 -183 -14 -43 -13
-53 -13 -85 1 -20 8 -57 14 -82 13 -25 -2 -64 1 -87 5 l-43 8 0 47 c0 26 2 50
4 52 7 7 613 2 625 -5z m-2669 -191 c0 -5 -9 4 -20 20 -11 17 -20 35 -20 40 0
6 9 -3 20 -20 11 -16 20 -34 20 -40z m2148 -43 c2 -24 -2 -49 -8 -57 -6 -7 -9
-45 -8 -91 l3 -79 -42 -3 -43 -3 0 79 c0 43 -3 107 -6 141 l-7 62 54 -3 54 -3
3 -43z m567 40 c57 -8 55 -4 42 -142 -3 -36 -6 -69 -6 -73 -1 -5 -45 -7 -98
-6 -151 4 -405 -4 -353 -11 l45 -6 -50 -5 c-27 -3 -51 -5 -51 -5 -1 1 -3 55
-5 121 l-4 120 75 6 c107 8 346 8 405 1z m-2376 -142 l0 -45 -18 34 c-14 26
-16 39 -7 57 15 31 26 11 25 -46z m-125 -27 c109 -115 100 -167 -40 -234 -74
-35 -151 -39 -204 -10 -43 23 -80 90 -80 145 0 41 29 111 46 111 5 0 18 -27
30 -60 12 -32 25 -60 30 -62 5 -1 45 8 89 21 l80 23 -1 39 c0 22 -4 47 -8 57
-15 32 12 18 58 -30z m2646 -10 l0 -27 15 22 c15 21 21 21 153 18 168 -5 183
-9 177 -45 -3 -14 -12 -69 -21 -121 -8 -52 -18 -98 -20 -102 -3 -4 -19 -8 -35
-8 l-30 0 6 93 c3 61 2 85 -4 72 -9 -19 -10 -18 -10 4 -1 16 -4 22 -11 15 -5
-5 -10 -47 -12 -94 l-3 -85 -35 2 c-82 6 -78 1 -75 115 l4 103 -11 -95 c-13
-127 -11 -122 -55 -114 -21 4 -41 9 -45 11 -12 7 -10 263 2 263 6 0 10 -12 10
-27z m424 -74 c-2 -90 -28 -176 -55 -184 -11 -4 -23 -4 -26 -1 -3 3 2 44 11
91 9 47 18 103 19 126 1 37 3 40 27 37 24 -3 25 -5 24 -69z m-2368 -296 c-4
-125 -8 -229 -10 -230 -2 -2 -63 -6 -136 -10 l-133 -6 8 187 c10 252 5 239 91
248 38 3 87 13 109 21 84 31 79 46 71 -210z m1854 136 c7 -28 10 -66 7 -84 -3
-19 -1 -35 5 -37 6 -2 7 -50 2 -137 -5 -102 -10 -134 -21 -138 -20 -8 -34 16
-28 47 3 14 4 41 4 60 -1 19 -2 80 -3 135 -2 106 -8 135 -37 175 l-17 26 38 1
c38 2 38 2 50 -48z m-184 -7 c11 -7 34 -45 34 -57 0 -3 -35 -3 -77 1 -115 9
-115 9 -102 -146 6 -74 15 -127 22 -132 16 -10 8 -14 -38 -20 l-40 -5 3 166
c3 201 3 201 116 201 39 0 76 -4 82 -8z m-2347 -69 c5 -27 28 -103 50 -170 23
-67 41 -125 41 -130 0 -4 -49 -8 -109 -9 -128 -1 -113 -16 -155 155 -35 139
-35 138 17 146 23 4 62 18 87 31 25 13 48 23 52 24 3 0 11 -21 17 -47z m1720
-19 l31 -26 0 -216 c0 -215 -8 -281 -36 -313 -8 -8 -15 -28 -16 -42 -3 -40
-39 -44 -349 -39 l-157 2 -7 28 c-3 15 -15 46 -26 69 -24 50 -29 164 -15 378
13 199 -9 185 300 185 l244 0 31 -26z m1366 6 c-3 -5 3 -10 13 -10 25 0 58
-29 66 -56 8 -28 -17 -54 -51 -54 -15 0 -35 -7 -45 -17 -17 -15 -18 -14 -18
15 0 47 20 132 31 132 6 0 7 -4 4 -10z m-1125 -8 c0 -13 -12 -22 -22 -16 -10
6 -1 24 13 24 5 0 9 -4 9 -8z m980 -12 c22 -6 24 -11 22 -46 -5 -77 -26 -193
-34 -188 -4 3 -8 -2 -8 -10 0 -12 -11 -16 -42 -16 -24 0 -87 -3 -140 -7 l-98
-6 0 131 c0 72 3 138 6 147 6 14 21 15 138 9 72 -4 142 -10 156 -14z m-2619
-5 c3 -31 -4 -108 -11 -132 -4 -15 -9 -22 -9 -15 -1 17 -52 38 -113 46 -45 7
-47 6 -50 -21 -2 -23 -7 -14 -25 42 -28 87 -28 83 1 78 13 -3 31 -1 39 4 22
12 167 11 168 -2z m1729 -122 l0 -112 -45 -22 -45 -23 0 -113 0 -114 -66 3
-66 3 -1 243 -2 242 103 0 c90 0 102 2 102 18 0 14 2 15 10 2 5 -8 10 -65 10
-127z m-1184 86 c34 -9 48 -9 57 0 6 6 42 11 79 11 l68 0 -2 -237 -3 -238 -67
-3 -68 -3 0 94 c0 89 -1 95 -27 119 -34 32 -73 48 -119 48 l-34 0 0 110 0 110
36 0 c19 0 55 -5 80 -11z m-1147 -68 c6 -20 13 -60 17 -88 6 -52 6 -53 -19
-53 -31 0 -40 29 -35 123 3 73 21 81 37 18z m544 -73 l47 -1 0 -49 0 -48 -61
0 c-58 0 -60 1 -73 33 -30 73 -30 76 6 71 18 -2 54 -5 81 -6z m2894 0 c14 -17
22 -67 13 -73 -5 -3 -36 -9 -69 -13 -59 -8 -61 -8 -61 14 0 47 17 72 52 77 18
2 38 5 44 5 6 1 16 -4 21 -10z m-3046 -154 c240 -5 400 -3 522 6 201 14 210
12 205 -48 -3 -40 -15 -46 -113 -57 -45 -6 -55 -10 -40 -16 l20 -8 -20 0 c-17
-1 -16 -4 8 -20 32 -21 78 -16 121 13 20 12 25 13 29 2 9 -24 7 -410 -2 -450
-14 -60 -59 -108 -127 -135 -57 -23 -64 -23 -384 -22 -333 0 -444 8 -484 35
-25 16 -66 94 -66 126 0 11 -11 49 -25 86 -23 61 -71 301 -62 310 2 2 70 -2
151 -10 81 -7 196 -14 256 -15 149 -3 493 19 505 31 7 6 4 14 -8 23 -18 13
-17 14 5 18 13 3 3 3 -22 1 -125 -12 -452 -15 -581 -6 -144 11 -283 35 -306
54 -14 11 -18 80 -6 92 5 4 24 5 43 2 19 -3 191 -9 381 -12z m2359 -3 c240 -7
522 -1 635 14 68 9 91 -7 81 -59 -9 -45 -23 -52 -156 -75 -72 -12 -159 -16
-360 -16 -288 1 -406 12 -582 56 -37 10 -38 11 -38 56 l0 46 83 -7 c45 -4 197
-11 337 -15z m-321 -148 c34 3 48 2 36 -3 -21 -9 3 -12 110 -15 28 0 59 -5 70
-10 24 -12 604 -13 722 -2 l83 7 -6 -112 c-9 -163 -72 -377 -123 -415 -33 -24
-180 -35 -490 -36 -267 -1 -325 2 -371 16 -122 36 -148 113 -135 413 7 171 7
173 28 163 12 -7 44 -9 76 -6z m-192 -85 c-3 -8 -6 -5 -6 6 -1 11 2 17 5 13 3
-3 4 -12 1 -19z m1257 -253 c-9 -82 -22 -120 -49 -145 -14 -13 -27 -21 -30
-18 -4 3 3 41 14 84 10 44 22 99 26 124 4 25 12 56 18 70 10 24 10 23 19 -20
5 -25 6 -67 2 -95z m-3520 98 c3 -10 10 -47 17 -83 6 -36 18 -89 26 -118 16
-58 12 -72 -15 -56 -37 22 -52 75 -52 177 0 88 11 124 24 80z m1441 -33 c77
-5 168 -10 203 -10 l62 0 0 -30 c0 -27 -3 -30 -30 -30 -38 0 -127 24 -165 44
-46 25 -78 20 -103 -14 -19 -25 -30 -30 -62 -30 -32 0 -40 4 -40 18 0 10 -8
18 -18 19 -15 1 -18 -4 -14 -23 2 -14 0 -24 -7 -24 -7 0 -11 20 -11 50 0 47 1
50 23 45 12 -3 85 -9 162 -15z m613 -20 c21 -7 23 -8 7 -9 -11 -1 -28 -10 -37
-20 -25 -29 -97 -37 -139 -16 -33 17 -59 39 -59 49 0 16 172 13 228 -4z m171
11 c24 -15 4 -51 -30 -51 -16 0 -32 0 -36 -1 -17 -1 -14 33 4 46 21 16 42 18
62 6z m-719 -31 c0 -5 -4 -10 -10 -10 -5 0 -10 5 -10 10 0 6 5 10 10 10 6 0
10 -4 10 -10z m740 -245 c0 -23 44 -116 83 -172 19 -29 32 -55 27 -58 -10 -6
-80 92 -80 111 0 6 -7 17 -16 25 -21 17 -42 70 -36 92 5 21 22 23 22 2z
m-1655 -315 c228 -11 461 -28 486 -35 24 -8 19 -32 -6 -29 -18 1 -22 -2 -18
-17 4 -15 0 -19 -18 -20 l-24 0 23 -9 c12 -5 22 -17 21 -27 0 -11 -3 -13 -6
-5 -2 6 -9 12 -14 12 -6 0 -6 -7 0 -19 8 -14 7 -22 -4 -31 -17 -14 -15 -33 3
-40 25 -10 -73 -53 -104 -46 -26 5 -255 21 -584 41 -59 4 -116 13 -130 20 -14
8 -19 14 -12 15 19 0 16 99 -3 106 -8 4 -15 11 -15 18 0 19 -86 65 -111 59
-15 -4 -20 -3 -15 5 9 15 241 16 531 2z m2850 5 c-5 -2 -22 -6 -37 -9 -19 -4
-30 -16 -38 -41 -8 -26 -17 -35 -33 -35 -16 0 -18 -3 -8 -9 10 -7 11 -13 1
-31 -7 -12 -10 -35 -8 -51 6 -37 0 -39 -157 -49 -403 -26 -512 -31 -555 -22
-25 6 -37 10 -27 11 20 1 22 12 6 28 -6 6 -13 33 -14 60 -4 82 -4 80 -15 63
-8 -12 -12 -13 -19 -2 -4 8 -12 13 -17 13 -5 -1 -10 8 -10 18 -1 16 7 21 40
26 116 17 935 45 891 30z m-875 -115 c0 -5 -4 -10 -10 -10 -5 0 -10 5 -10 10
0 6 5 10 10 10 6 0 10 -4 10 -10z m0 -71 c0 -6 -4 -7 -10 -4 -5 3 -10 11 -10
16 0 6 5 7 10 4 6 -3 10 -11 10 -16z"/>
<path d="M5845 2979 c66 -4 127 -8 135 -10 8 -1 40 -1 70 1 l55 3 -70 7 c-38
4 -124 7 -190 7 l-120 0 120 -8z"/>
<path d="M5194 2464 c-14 -9 -66 -18 -150 -24 -139 -10 -175 -17 -186 -34 -4
-6 -8 -80 -8 -163 l0 -153 193 4 c105 2 195 5 200 5 11 2 8 340 -3 362 -13 22
-18 23 -46 3z m-39 -68 c14 -10 21 -36 29 -115 17 -148 20 -144 -116 -135
-152 9 -164 13 -160 50 2 16 10 41 17 57 7 15 9 27 4 27 -12 0 -12 80 0 99 6
9 36 17 78 21 109 11 128 11 148 -4z"/>
<path d="M5002 2330 c-47 -33 -48 -39 -27 -80 19 -36 62 -70 89 -70 38 1 116
86 100 111 -9 15 -95 69 -109 69 -7 0 -31 -14 -53 -30z"/>
<path d="M6521 2364 c0 -11 3 -14 6 -6 3 7 2 16 -1 19 -3 4 -6 -2 -5 -13z"/>
<path d="M5561 2394 c0 -11 3 -14 6 -6 3 7 2 16 -1 19 -3 4 -6 -2 -5 -13z"/>
<path d="M4230 2060 c0 -5 5 -10 11 -10 5 0 7 5 4 10 -3 6 -8 10 -11 10 -2 0
-4 -4 -4 -10z"/>
<path d="M4788 4113 c12 -2 30 -2 40 0 9 3 -1 5 -23 4 -22 0 -30 -2 -17 -4z"/>
<path d="M7434 3222 c-27 -4 -44 -41 -44 -93 0 -51 58 -171 71 -147 12 21 37
197 32 219 -5 19 -26 26 -59 21z"/>
<path d="M1881 2834 c0 -11 3 -14 6 -6 3 7 2 16 -1 19 -3 4 -6 -2 -5 -13z"/>
<path d="M5560 740 c0 -5 5 -10 10 -10 6 0 10 5 10 10 0 6 -4 10 -10 10 -5 0
-10 -4 -10 -10z"/>
<path d="M5527 647 c4 -21 2 -23 -24 -20 -22 4 -30 1 -30 -11 0 -18 13 -21 22
-6 3 5 13 6 21 3 9 -3 20 0 25 8 13 21 11 49 -5 49 -8 0 -12 -8 -9 -23z"/>
<path d="M4897 623 c-3 -5 15 -8 39 -8 24 0 44 3 44 8 0 4 -18 7 -39 7 -22 0
-42 -3 -44 -7z"/>
<path d="M4990 623 c0 -5 70 -8 155 -8 85 0 155 3 155 8 0 4 -70 7 -155 7 -85
0 -155 -3 -155 -7z"/>
<path d="M5319 619 c-9 -6 0 -9 30 -9 47 0 52 6 10 13 -14 3 -32 1 -40 -4z"/>
<path d="M5423 615 c0 -6 9 -11 19 -11 10 0 18 5 18 11 0 6 -8 11 -18 11 -10
0 -19 -5 -19 -11z"/>
<path d="M6770 613 c0 -5 25 -9 55 -9 30 -1 55 2 55 7 0 5 -25 9 -55 9 -30 0
-55 -3 -55 -7z"/>
<path d="M6920 598 c0 -4 41 -8 90 -8 50 0 90 4 90 9 0 5 -40 8 -90 8 -49 0
-90 -4 -90 -9z"/>
<path d="M2900 596 c0 -10 28 -13 41 -5 10 6 7 9 -13 9 -16 0 -28 -2 -28 -4z"/>
<path d="M7185 590 c-4 -6 8 -10 30 -10 22 0 34 4 30 10 -3 6 -17 10 -30 10
-13 0 -27 -4 -30 -10z"/>
<path d="M7500 562 c0 -16 18 -24 25 -12 4 6 12 4 23 -6 11 -12 17 -13 20 -5
5 16 1 20 -36 27 -20 4 -32 2 -32 -4z"/>
<path d="M2519 553 c-1 -5 -1 -11 0 -15 0 -5 -3 -8 -9 -8 -5 0 -10 5 -10 11 0
6 -8 8 -17 5 -10 -3 -31 -8 -48 -10 -40 -7 -85 -26 -85 -37 0 -15 44 -23 115
-21 48 1 65 -2 55 -8 -13 -8 -12 -10 3 -10 10 0 17 8 17 20 0 11 5 20 10 20
16 0 11 47 -6 54 -20 8 -24 8 -25 -1z"/>
</g>
</svg>
